<svg width="501" height="75" viewBox="0 0 501 75" fill="none" xmlns="http://www.w3.org/2000/svg">
<g clip-path="url(#clip0_176_12)">
<path d="M37.495 0.00185864C27.551 0.00185864 18.014 3.95186 10.982 10.9839C3.95 18.0159 0 27.5529 0 37.4979C0 37.9029 0 38.3039 0.028 38.7039C0.262 31.8709 2.487 25.2539 6.43 19.6679C10.373 14.0819 15.863 9.76986 22.223 7.26186C28.583 4.75386 35.539 4.15886 42.233 5.54986C48.927 6.94086 55.07 10.2579 59.904 15.0929C64.738 19.9279 68.056 26.0699 69.447 32.7649C70.838 39.4599 70.243 46.4139 67.735 52.7749C65.227 59.1359 60.915 64.6249 55.329 68.5679C49.743 72.5109 43.127 74.7359 36.293 74.9699C36.694 74.9699 37.094 74.9979 37.495 74.9979C42.4547 75.0535 47.3761 74.1246 51.9743 72.2651C56.5725 70.4056 60.7562 67.6524 64.283 64.1649C67.8099 60.6774 70.61 56.5248 72.521 51.9477C74.432 47.3706 75.416 42.4599 75.416 37.4999C75.416 32.5398 74.432 27.6291 72.521 23.052C70.61 18.4749 67.8099 14.3224 64.283 10.8349C60.7561 7.34739 56.5723 4.59425 51.974 2.73486C47.3759 0.8753 42.4546 -0.0536291 37.495 0.00185864V0.00185864Z" fill="#055FB5"/>
<path d="M59.7352 50.675H31.5052C30.4942 50.656 29.5132 50.326 28.6952 49.731C27.8772 49.136 27.2622 48.304 26.9332 47.348L18.9452 25.777C18.6119 24.8258 17.9951 23.9996 17.1778 23.4098C16.3605 22.8199 15.382 22.4947 14.3742 22.478H10.4482" stroke="#055FB5" stroke-width="4" stroke-linecap="round" stroke-linejoin="round"/>
<path d="M31.722 56.293L32.622 58.904C32.7032 59.1419 32.8572 59.3482 33.062 59.494C33.2666 59.6399 33.5116 59.7186 33.763 59.719H36.289C36.4779 59.719 36.6642 59.6748 36.833 59.59C37.0017 59.5052 37.148 59.3819 37.26 59.23C37.372 59.078 37.447 58.902 37.479 58.716C37.511 58.53 37.499 58.339 37.444 58.159L36.643 55.548C36.5678 55.2999 36.415 55.0826 36.207 54.928C35.9993 54.7731 35.7471 54.6896 35.488 54.69H32.872C32.679 54.6891 32.4886 54.7345 32.3167 54.8222C32.1448 54.9099 31.9963 55.0375 31.8838 55.1943C31.7712 55.3511 31.6978 55.5326 31.6697 55.7235C31.6415 55.9144 31.6595 56.1094 31.722 56.292V56.292V56.293ZM52.666 56.293L53.566 58.904C53.6467 59.1423 53.8003 59.3492 54.0051 59.4954C54.2098 59.6417 54.4554 59.7199 54.707 59.719H57.233C57.4219 59.719 57.6082 59.6748 57.777 59.59C57.9459 59.5054 58.0924 59.3822 58.2046 59.2303C58.3169 59.0784 58.3917 58.9022 58.423 58.716C58.454 58.53 58.443 58.339 58.387 58.159L57.586 55.548C57.511 55.3 57.359 55.083 57.15 54.928C56.941 54.773 56.69 54.69 56.431 54.69H53.811C53.6185 54.6901 53.4288 54.7362 53.2576 54.8243C53.0865 54.9125 52.9389 55.0403 52.827 55.197C52.715 55.354 52.642 55.535 52.614 55.725C52.586 55.9154 52.6038 56.1098 52.666 56.292V56.293Z" stroke="#055FB5" stroke-width="3" stroke-miterlimit="10"/>
<path d="M50.229 37.559L49.253 39.873L46.227 47.117C46.2044 47.1903 46.1562 47.253 46.0913 47.2938C46.0263 47.3345 45.9488 47.3506 45.873 47.339H41.28C41.195 47.348 41.11 47.327 41.04 47.278C40.97 47.229 40.92 47.157 40.898 47.075L38.287 40.675L37.01 37.555C36.9478 37.4059 36.9172 37.2455 36.92 37.084L36.972 22.809C36.959 22.7295 36.9738 22.6479 37.014 22.578L43.612 39.422C43.735 39.389 43.735 39.29 43.763 39.219L47.458 29.478L49.979 22.833C50.111 22.489 50.064 22.546 50.384 22.546H55.365C55.69 22.546 55.671 22.546 55.667 22.838L55.587 46.996V47.053C55.587 47.293 55.587 47.293 55.342 47.293H50.526C50.229 47.293 50.229 47.293 50.229 46.982L50.262 37.933C50.276 37.808 50.265 37.681 50.229 37.561V37.559ZM27.749 27.238L28.121 26.267L29.502 22.685C29.61 22.412 29.549 22.435 29.879 22.435H34.776H34.941C35.049 22.435 35.097 22.473 35.087 22.581V22.774L35.002 46.927C35.002 47.328 35.044 47.276 34.644 47.271H30.355C30.001 47.271 30.025 47.309 30.03 46.946L30.096 27.623C30.096 27.199 30.143 27.255 29.733 27.251L27.749 27.237V27.238ZM280.52 58.28C275.016 61.3968 268.584 62.4598 262.37 61.28C260.696 61.0591 259.106 60.4156 257.75 59.41C256.391 58.2418 255.482 56.6363 255.18 54.87L254.99 53.87L254.76 51.87C254.09 43.8 256.83 40.45 264.98 39.53L279.48 38.09C280.15 33.03 278.62 30.94 273.89 30.92C272.224 30.834 270.556 30.834 268.89 30.92C267.21 31.0426 265.608 31.6778 264.3 32.74C264.008 32.9836 263.737 33.2512 263.49 33.54C263.26 33.79 263.08 34.13 262.75 34.26C262.387 34.36 262.003 34.36 261.64 34.26C260.605 34.107 259.596 33.814 258.64 33.39C258.166 33.1622 257.767 32.8043 257.489 32.358C257.211 31.912 257.066 31.396 257.07 30.87C257 29.63 258.01 28.63 258.86 27.87C259.74 27.075 260.756 26.445 261.86 26.01C262.569 25.732 263.302 25.5211 264.05 25.38C266.95 24.7928 269.901 24.4881 272.86 24.47C275.885 24.509 278.9 24.844 281.86 25.47C286.11 26.37 288.86 29.15 289.12 33.58C289.44 39.83 289.28 46.11 289.52 52.37C289.58 53.97 290.52 55.53 290.8 57.14C291.008 57.9536 290.908 58.8153 290.52 59.56C288.86 61.81 284.84 62.05 282.52 60.17C281.86 59.69 281.29 59.03 280.52 58.28V58.28ZM279.71 42.37L267.9 43.73C264.68 44.22 264.38 46.73 264.34 49.35C264.3 51.97 264.82 54.57 267.84 54.61C271.217 54.52 274.573 54.04 277.84 53.18C278.314 52.9336 278.723 52.5774 279.031 52.141C279.339 51.7041 279.538 51.1996 279.61 50.67C279.86 48.05 279.71 45.39 279.71 42.37ZM449.64 59.05C447.82 62.57 443.91 62.69 439.2 58.33C433.65 61.4506 427.17 62.4962 420.92 61.28C416.53 60.52 414.41 58.28 413.75 53.96C413.63 53.11 413.52 52.26 413.47 51.41C412.99 43.82 415.73 40.47 423.34 39.57C428.27 38.99 433.23 38.57 438.14 38.12C438.264 37.5951 438.334 37.0591 438.35 36.52C438.385 36.047 438.385 35.573 438.35 35.1C438.302 34.3261 438.069 33.5751 437.67 32.91C436.43 30.98 433.84 30.91 431.8 30.91H429.75C428.513 30.8611 427.275 30.9788 426.07 31.26C424.773 31.577 423.6 32.2733 422.7 33.26C422.426 33.632 422.107 33.968 421.75 34.26C421.334 34.4387 420.873 34.4842 420.43 34.39C419.908 34.328 419.391 34.234 418.88 34.11C418.242 33.9967 417.633 33.7552 417.09 33.4C416.447 32.9307 416.002 32.2393 415.84 31.46C415.786 31.0335 415.826 30.6004 415.957 30.191C416.088 29.7814 416.308 29.4055 416.6 29.09C416.961 28.528 417.395 28.017 417.89 27.57C418.951 26.7406 420.19 26.169 421.51 25.9C422.978 25.509 424.467 25.202 425.97 24.98C427.27 24.8 428.57 24.68 429.87 24.63C433.92 24.4867 437.967 24.9691 441.87 26.06C443.48 26.4249 444.926 27.3068 445.988 28.571C447.05 29.835 447.669 31.412 447.75 33.061C448.03 37.751 448.02 42.451 448.12 47.151C448.12 48.891 448.19 50.641 448.36 52.371C448.564 54.1183 448.875 55.8515 449.29 57.561C449.35 57.821 449.4 58.081 449.45 58.331C449.5 58.581 449.71 58.921 449.64 59.051V59.05ZM438.45 42.36C434.21 42.85 430.31 43.16 426.45 43.79C423.22 44.32 423.11 47.01 423.08 49.54C423.05 52.07 423.62 54.54 426.48 54.59C429.855 54.5176 433.211 54.0545 436.48 53.21C437.3 53.03 438.24 51.48 438.35 50.47C438.63 47.95 438.45 45.39 438.45 42.36V42.36ZM188.41 43.84C188.359 43.9573 188.329 44.0824 188.32 44.21C188.305 44.3529 188.305 44.4971 188.32 44.64C188.305 44.923 188.305 45.207 188.32 45.49V45.75L188.4 47.62C188.82 52.02 190.49 53.94 194.92 54.62C199.72 55.34 204.47 55.33 208.68 52.25C208.78 52.18 209.68 53 209.75 53.1C210.044 53.4001 210.3 53.736 210.51 54.1C210.882 54.6957 211.018 55.4093 210.89 56.1C210.6 57.47 209.31 58.26 208.15 58.83C206.28 59.76 204.306 60.465 202.27 60.93C199.359 61.436 196.401 61.614 193.45 61.46C191.124 61.5159 188.799 61.2841 186.53 60.77C184.434 60.3153 182.532 59.2175 181.09 57.63C180.968 57.4878 180.851 57.341 180.74 57.19C179.691 55.699 179.088 53.941 179 52.12C178.583 46.081 178.647 40.019 179.19 33.99C179.63 29.09 183.14 25.99 187.94 25.51C193.543 24.9268 199.187 24.8732 204.8 25.35C210.47 25.87 212.64 28.69 213.28 34.35C214.2 42.72 213.52 43.49 205.28 43.5L189.18 43.55C188.93 43.58 188.54 43.62 188.41 43.84V43.84ZM188.41 38.57H203.25C203.32 35.77 204.4 32.57 201.77 31.05C198.35 29.05 194.27 29.51 190.77 31.23C187.79 32.69 188.1 35.69 188.43 38.57H188.41ZM146.27 61.12H136.42V40.22V33.17C136.352 32.1533 136.488 31.1333 136.82 30.17C137.187 29.4072 137.815 28.8007 138.59 28.46L140.11 27.83C142.119 27.0303 144.185 26.3819 146.29 25.89C148.377 25.4077 150.496 25.0736 152.63 24.89C154.778 24.702 156.935 24.648 159.09 24.73L162.58 24.98C168.16 25.54 170.82 28.52 170.96 34.36C171.18 43.18 171.02 52.01 171.02 61.07H160.89V58.12L160.78 35.03C160.71 30.59 160.21 30.21 155.65 30.37C154.025 30.4098 152.405 30.5602 150.8 30.82C146.35 31.58 146.32 31.61 146.29 36.2V57.86L146.27 61.12V61.12ZM243.4 35.59C242.928 34.871 242.386 34.201 241.78 33.59C241.174 32.97 240.504 32.4168 239.78 31.94C238.336 30.9969 236.706 30.3761 235 30.12C232.85 29.79 229.72 29.82 228.23 31.67C227.907 32.1478 227.72 32.7042 227.688 33.28C227.657 33.8558 227.782 34.4294 228.05 34.94C229.5 38.35 233.88 38.67 236.99 39.56C238.91 40.11 240.89 40.5 242.8 41.12C248.53 42.97 250.2 46.12 249.41 53.51C248.86 58.57 246.58 60.95 240.88 61.26C235.152 61.5134 229.415 61.4767 223.69 61.15C221.43 61.05 218.99 60.15 218.56 57.38C218.282 56.2072 218.411 54.9749 218.925 53.8849C219.439 52.7948 220.308 51.9117 221.39 51.38C225.39 55.58 230.59 56.61 236.24 56.31C238.83 56.17 240.4 55.17 240.66 52.48C240.98 49.2 240.1 47.76 237.06 47.01C233.82 46.19 230.5 45.62 227.3 44.68C220.55 42.68 217.86 37.82 219.52 31.02C219.821 29.5442 220.602 28.2098 221.742 27.2255C222.882 26.2411 224.316 25.6625 225.82 25.58C230.862 25.1084 235.927 24.9314 240.99 25.05C243.3 25.05 245.99 25.56 246.56 28.57C247.13 31.58 245.92 33.86 243.4 35.59ZM297.11 10H306.57V61H297.11V10ZM129 35.68C128.52 29.68 125.11 25.99 119 25.4C113.588 24.915 108.143 24.915 102.73 25.4C97.4 25.85 94.11 28.8 93.53 34.03C92.895 40.136 92.795 46.286 93.23 52.41C93.2403 52.5298 93.2403 52.6502 93.23 52.77L93.29 53.23C93.29 53.33 93.29 53.46 93.36 53.6C93.376 53.745 93.403 53.889 93.44 54.03C93.452 54.1151 93.4721 54.1988 93.5 54.28C93.611 54.752 93.779 55.209 94 55.64V55.7C94.0189 55.752 94.0423 55.8022 94.07 55.85C94.5766 56.9915 95.3479 57.996 96.32 58.78C96.64 59.039 96.974 59.279 97.32 59.5C97.59 59.67 97.89 59.85 98.22 60.02L98.4 60.11C99.8439 60.8554 101.396 61.3684 103 61.63C107.422 62.4431 111.95 62.4972 116.39 61.79C118.403 61.6292 120.383 61.1813 122.27 60.46C123.887 59.7445 125.319 58.6708 126.46 57.32C128.02 55.2346 128.906 52.7226 129 50.12C129.408 45.3153 129.408 40.4847 129 35.68ZM115.08 56.18C114.14 56.31 113.19 56.5 112.24 56.55C105.86 56.86 103.61 55.14 103.1 48.8C102.775 44.2591 102.775 39.7009 103.1 35.16C103.29 31.95 104.9 30.77 108.1 30.4C116.6 29.4 119.03 31.54 119.25 40.07V42.87L119.12 50.52L118.96 52.3C118.897 53.3066 118.469 54.2558 117.757 54.97C117.044 55.684 116.096 56.114 115.09 56.18H115.08ZM323.58 43.76C323.529 43.8773 323.499 44.0024 323.49 44.13V44.55C323.475 44.837 323.475 45.124 323.49 45.41C323.495 45.497 323.495 45.583 323.49 45.67L323.57 47.54C323.99 51.93 325.66 53.86 330.09 54.54C334.89 55.27 339.65 55.25 343.85 52.17C343.95 52.1 344.85 52.93 344.92 53.03C345.217 53.3281 345.472 53.6644 345.68 54.03C346.053 54.6254 346.189 55.3393 346.06 56.03C345.77 57.39 344.48 58.19 343.32 58.76C341.455 59.6912 339.484 60.3929 337.45 60.85C334.536 61.3549 331.574 61.536 328.62 61.39C326.294 61.4461 323.969 61.2143 321.7 60.7C319.605 60.2415 317.705 59.1444 316.26 57.56C316.14 57.41 316.02 57.27 315.91 57.11C314.864 55.642 314.254 53.909 314.15 52.11C313.738 46.071 313.802 40.009 314.34 33.98C314.78 29.08 318.34 25.98 323.1 25.49C328.699 24.91 334.341 24.86 339.95 25.34C345.63 25.86 347.8 28.68 348.43 34.34C349.36 42.7 348.67 43.48 340.43 43.49H324.33C324.1 43.5 323.72 43.53 323.58 43.76V43.76ZM323.58 38.49H338.43C338.5 35.69 339.58 32.49 336.94 30.97C333.53 28.97 329.44 29.43 325.94 31.15C323 32.61 323.27 35.61 323.6 38.49H323.58V38.49ZM406.28 61.12H396.53L396.35 53.48L396.12 34.48C396.03 30.72 395.22 30.18 391.58 30.41C386.82 30.73 386.13 31.41 386.09 36.21V57.87V61.12H375.87V49.12L375.76 34.31C375.65 30.88 374.68 30.16 371.29 30.39C370.904 30.3948 370.519 30.4349 370.14 30.51C365.67 31.26 365.47 31.43 365.44 35.94V47.82V54.67V61.12H355.6V54.69V31.69C355.6 30.11 355.88 28.99 357.48 28.3C365.48 24.82 373.64 23.12 382.2 26.44C383.093 26.6526 384.031 26.5792 384.88 26.23C389.339 24.6938 394.113 24.3085 398.76 25.11C403.54 25.94 406.13 28.38 406.27 33.11C406.49 42.3 406.28 51.56 406.28 61.12V61.12ZM476.22 32.01C475.502 32.5063 474.688 32.847 473.83 33.01C473.548 33.0151 473.269 32.9534 473.015 32.83C472.761 32.707 472.54 32.525 472.37 32.3C472.16 32.08 471.97 31.85 471.8 31.64C471.139 30.877 470.247 30.3504 469.26 30.14C466.42 29.48 465.47 32.25 465.48 34.52V57.87V61.12H455.55V45.54V44.32V37.32V36.23V36.12V33.93C455.474 32.855 455.545 31.776 455.76 30.72C455.946 30.1289 456.253 29.5829 456.661 29.1165C457.069 28.65 457.569 28.2732 458.13 28.01C461.92 26.164 466.041 25.0931 470.25 24.86C472.87 24.67 477.17 24.62 478 27.86C478.062 28.0716 478.099 28.2898 478.11 28.51C478.178 29.2151 478.034 29.9244 477.698 30.5476C477.361 31.1709 476.847 31.6799 476.22 32.01V32.01ZM492.9 33.54V45.54L493.01 51.48C493.048 52.7116 493.391 53.9145 494.01 54.98C494.62 56.05 495.68 56.87 496.09 58.07C496.5 59.27 495.34 60.38 494.36 60.9C493.009 61.5075 491.528 61.772 490.05 61.67C489.015 61.7189 487.983 61.5297 487.033 61.117C486.083 60.704 485.241 60.079 484.57 59.29C482.36 56.29 482.86 52.02 482.84 48.51V35.81V29.88H479.9V25.18H482.83V20.37C482.95 15.09 485.83 14.79 488.38 14.89C489.048 14.867 489.716 14.893 490.38 14.97C493.26 14.97 492.94 17.31 492.94 17.31V25.18H498.63V29.88H492.94V33.51L492.9 33.54V33.54Z" fill="#055FB5"/>
</g>
<defs>
<clipPath id="clip0_176_12">
<rect width="501" height="75" fill="white"/>
</clipPath>
</defs>
</svg>
