<svg width="394" height="204" viewBox="0 0 394 204" fill="none" xmlns="http://www.w3.org/2000/svg">
<path d="M17.5 0L0.5 36.5H23.5L17.5 0Z" fill="#D90000"/>
<path d="M374 204L367 166.5H393.5L374 204Z" fill="#D90000"/>
<path d="M328.5 200L319.5 144.5L308.5 77.5L375 61L393.5 166.5L328.5 200Z" fill="#FF3434"/>
<path d="M64.5 5.5L0 36.5L17 142.5L81.5 129L64.5 5.5Z" fill="#FF3434"/>
<path d="M75.5 86.5L64.5 5L27.5 48.5L75.5 86.5Z" fill="#D90000"/>
<path d="M353 49.5H27L38 160.5L366.5 164L353 49.5Z" fill="#FF471F"/>
<path d="M67.0488 124L73.2012 88.4531L84.5049 88.4775C88.9645 88.4938 92.293 89.3402 94.4902 91.0166C96.6875 92.693 97.6885 95.0449 97.4932 98.0723C97.249 101.816 95.1982 104.469 91.3408 106.031C92.7243 106.52 93.7985 107.407 94.5635 108.692C95.3447 109.962 95.6784 111.492 95.5645 113.282C95.3366 116.716 93.9775 119.361 91.4873 121.217C89.0133 123.072 85.6198 124 81.3066 124H67.0488ZM78.0352 108.888L76.5459 117.408L81.5508 117.433C83.1133 117.433 84.4154 117.05 85.457 116.285C86.4987 115.504 87.1172 114.47 87.3125 113.185C87.7682 110.466 86.7266 109.042 84.1875 108.912L78.0352 108.888ZM78.9873 103.272L82.918 103.297C86.5475 103.215 88.582 101.824 89.0215 99.1221C89.4121 96.4528 88.0286 95.11 84.8711 95.0938L80.4277 95.0693L78.9873 103.272ZM106.697 124H98.6406L105.135 86.5H113.191L106.697 124ZM126.692 124C126.465 123.365 126.351 122.568 126.351 121.607C124.544 123.593 122.387 124.553 119.881 124.488C117.586 124.456 115.682 123.691 114.168 122.193C112.654 120.696 111.946 118.881 112.044 116.749C112.125 113.884 113.322 111.687 115.633 110.157C117.944 108.611 121.102 107.838 125.105 107.838L127.791 107.887L128.084 106.397L128.182 105.104C128.117 103.622 127.376 102.857 125.96 102.809C124.202 102.776 123.12 103.744 122.713 105.714L114.656 105.738C114.738 103.964 115.315 102.426 116.39 101.124C117.464 99.8057 118.921 98.7965 120.76 98.0967C122.615 97.3805 124.585 97.0469 126.668 97.0957C128.67 97.1445 130.42 97.5677 131.917 98.3652C133.431 99.1465 134.562 100.245 135.311 101.661C136.059 103.061 136.344 104.68 136.165 106.52L134.188 118.946L134.065 120.46C134 121.664 134.155 122.69 134.529 123.536L134.505 124H126.692ZM122.103 118.678C123.746 118.743 125.187 118.019 126.424 116.505L127.229 112.257L125.154 112.232C123.868 112.265 122.762 112.647 121.834 113.38C120.906 114.096 120.361 115.081 120.198 116.334C120.117 117.001 120.239 117.555 120.564 117.994C120.906 118.417 121.419 118.645 122.103 118.678ZM150.008 118.165C151.163 118.198 152.067 117.88 152.718 117.213C153.369 116.529 153.784 115.65 153.963 114.576L161.482 114.552C161.385 116.489 160.807 118.222 159.749 119.752C158.707 121.282 157.291 122.47 155.501 123.316C153.727 124.146 151.823 124.537 149.788 124.488C146.272 124.423 143.562 123.162 141.658 120.704C139.754 118.23 138.981 115.04 139.339 111.134L139.412 110.548C139.705 107.879 140.454 105.519 141.658 103.468C142.863 101.401 144.441 99.8057 146.395 98.6826C148.364 97.5596 150.561 97.0306 152.986 97.0957C156.062 97.1608 158.488 98.1455 160.262 100.05C162.052 101.938 162.915 104.493 162.85 107.716L155.33 107.691C155.411 104.892 154.41 103.468 152.327 103.419C149.495 103.321 147.868 105.706 147.444 110.572L147.225 113.062L147.2 113.99C147.2 116.725 148.136 118.116 150.008 118.165ZM175.472 114.259L172.542 116.798L171.297 124H163.265L169.783 86.4756H177.815L174.104 106.495L175.081 105.323L182.381 97.584H192.562L181.331 108.814L188.143 124H179.329L175.472 114.259ZM226.912 109.84H213.509L211.043 124H202.693L208.846 88.4531H231.966L230.818 95.0693H216.072L214.656 103.248H228.06L226.912 109.84ZM247.518 105.03C246.655 104.9 245.825 104.819 245.027 104.786C242.618 104.721 240.779 105.551 239.51 107.276L236.531 124H228.499L233.089 97.584L240.584 97.5596L239.974 101.026C241.699 98.3571 243.733 97.0225 246.077 97.0225C246.744 97.0225 247.575 97.1364 248.567 97.3643L247.518 105.03ZM255.574 124H247.518L252.107 97.584H260.164L255.574 124ZM252.815 90.9189C252.783 89.7308 253.198 88.738 254.061 87.9404C254.939 87.1429 255.997 86.7441 257.234 86.7441C258.488 86.7441 259.529 87.1022 260.359 87.8184C261.206 88.5345 261.645 89.4704 261.678 90.626C261.71 91.8304 261.295 92.8314 260.433 93.6289C259.57 94.4102 258.512 94.8008 257.259 94.8008C256.038 94.8008 254.996 94.4508 254.134 93.751C253.287 93.0348 252.848 92.0908 252.815 90.9189ZM261.995 110.743C262.5 106.576 263.769 103.24 265.804 100.733C267.838 98.2269 270.491 97.0143 273.763 97.0957C276.009 97.1608 277.872 98.1048 279.354 99.9277L281.917 86.5H289.974L283.479 124H276.326L276.668 121.144C274.699 123.455 272.509 124.578 270.101 124.513C267.562 124.48 265.568 123.544 264.119 121.705C262.687 119.85 261.922 117.368 261.824 114.259C261.792 113.233 261.824 112.232 261.922 111.256L261.995 110.743ZM270.003 111.28C269.873 112.322 269.816 113.233 269.832 114.015C269.832 116.716 270.743 118.092 272.566 118.141C274.145 118.189 275.553 117.433 276.79 115.87L278.597 105.738C278.06 104.241 276.985 103.468 275.374 103.419C273.877 103.386 272.664 104.037 271.736 105.372C270.825 106.69 270.247 108.66 270.003 111.28ZM303.108 124C302.881 123.365 302.767 122.568 302.767 121.607C300.96 123.593 298.803 124.553 296.297 124.488C294.002 124.456 292.098 123.691 290.584 122.193C289.07 120.696 288.362 118.881 288.46 116.749C288.541 113.884 289.738 111.687 292.049 110.157C294.36 108.611 297.518 107.838 301.521 107.838L304.207 107.887L304.5 106.397L304.598 105.104C304.533 103.622 303.792 102.857 302.376 102.809C300.618 102.776 299.536 103.744 299.129 105.714L291.072 105.738C291.154 103.964 291.731 102.426 292.806 101.124C293.88 99.8057 295.337 98.7965 297.176 98.0967C299.031 97.3805 301.001 97.0469 303.084 97.0957C305.086 97.1445 306.836 97.5677 308.333 98.3652C309.847 99.1465 310.978 100.245 311.727 101.661C312.475 103.061 312.76 104.68 312.581 106.52L310.604 118.946L310.481 120.46C310.416 121.664 310.571 122.69 310.945 123.536L310.921 124H303.108ZM298.519 118.678C300.162 118.743 301.603 118.019 302.84 116.505L303.646 112.257L301.57 112.232C300.285 112.265 299.178 112.647 298.25 113.38C297.322 114.096 296.777 115.081 296.614 116.334C296.533 117.001 296.655 117.555 296.98 117.994C297.322 118.417 297.835 118.645 298.519 118.678ZM325.936 112.379L332.771 97.584H341.634L326.155 127.955C325 130.348 323.665 132.073 322.151 133.131C320.654 134.205 318.864 134.742 316.78 134.742C315.853 134.742 314.673 134.563 313.24 134.205L313.851 128.321H314.778C315.771 128.321 316.642 128.159 317.391 127.833C318.139 127.524 318.766 126.913 319.271 126.002L320.418 123.805L316.194 97.584H324.495L325.936 112.379Z" fill="black"/>
</svg>
