<svg width="924" height="424" viewBox="0 0 924 424" fill="none" xmlns="http://www.w3.org/2000/svg">
<path d="M835.544 233.31L637.427 202.264L663.69 320.32L835.544 233.31Z" fill="#D12053"/>
<path d="M835.544 233.31L686.255 25.8901L637.464 202.301L835.544 233.31Z" fill="#E2136E"/>
<path d="M632.832 199.91L476.408 0L681.25 24.4704L632.832 199.91Z" fill="#D12053"/>
<path d="M561.587 116.375L474.727 34.5201H497.591L561.587 116.375Z" fill="#9E1638"/>
<path d="M877.797 132.477L841.036 232.189L781.447 149.774L877.797 132.477Z" fill="#D12053"/>
<path d="M686.816 314.342L831.061 256.398L837.113 237.98L686.816 314.342Z" fill="#E2136E"/>
<path d="M571.45 423.693L633.243 206.934L664.587 347.966L571.45 423.693Z" fill="#9E1638"/>
<path d="M883.551 133.261L868.383 174.431L923.077 173.535L883.551 133.261ZM0 149.774C2.65252 149.998 5.3424 150.484 8.18172 150.484C11.021 150.484 13.3373 149.998 16.3634 149.774V237.457C24.9935 222.774 35.8651 213.098 51.8549 213.098C80.7711 213.098 93.1744 241.716 93.1744 268.017C93.1744 299.511 76.3627 329.66 46.8861 329.66C40.9845 329.789 35.1599 328.302 30.0431 325.358C24.9264 322.414 20.7125 318.127 17.8578 312.96C12.9264 317.294 8.55531 322.487 3.88538 327.194H0.149438L0 149.774ZM15.9898 278.739C15.9898 304.293 26.8241 322.113 44.6445 322.113C67.77 322.113 75.2045 291.03 75.2045 268.988C75.2045 243.397 66.7613 223.26 46.7367 223.036C23.3496 222.849 15.9898 250.532 15.9898 278.776V278.739Z" fill="#E2136E"/>
<path d="M168.603 206.486L151.194 228.901C167.557 252.811 184.518 276.236 200.957 300.445L217.544 326.596V327.904C213.472 327.642 209.773 327.119 206.336 327.119C202.899 327.119 198.566 327.642 194.904 327.904C190.384 319.535 185.901 311.802 180.782 304.218L135.951 237.905C134.942 236.859 132.514 236.037 132.514 237.12V327.904C129.226 327.642 126.35 327.119 123.51 327.119C120.671 327.119 117.384 327.642 114.507 327.904V149.774C117.384 149.998 120.484 150.558 123.51 150.558C126.537 150.558 129.226 149.998 132.514 149.774V230.171C132.514 231.741 135.578 230.694 137.595 228.602C141.486 224.568 145.129 220.301 148.504 215.825L198.902 149.699C201.554 149.923 204.207 150.484 207.084 150.484C209.96 150.484 212.164 149.923 215.078 149.699L168.603 206.486ZM304.181 307.842C304.181 317.107 303.583 321.814 315.65 318.751V323.944C313.679 324.931 311.614 325.72 309.486 326.297C298.838 328.427 290.021 326.521 288.378 312.586L286.547 314.641C282.988 319.305 278.396 323.081 273.133 325.674C267.87 328.267 262.078 329.605 256.211 329.585C241.716 329.585 229.014 318.153 229.014 300.631C229.014 273.62 247.693 270.071 266.859 266.522C283.073 263.459 288.602 262.039 288.602 250.644C288.602 233.085 280.009 222.924 264.654 222.924C259.411 222.821 254.262 224.332 249.905 227.252C245.548 230.172 242.194 234.36 240.296 239.25H238.054V226.099C247.273 218.078 258.979 213.486 271.192 213.098C292.674 213.098 304.367 226.099 304.367 252.886L304.181 307.842ZM287.817 268.726L280.607 270.37C266.672 273.434 245.788 275.787 245.788 297.418C245.788 312.362 253.26 319.834 265.813 319.834C272.306 319.034 278.244 315.771 282.4 310.718C283.895 309 288.004 304.965 288.004 303.246L287.817 268.726ZM340.681 304.703C345.538 314.006 354.579 322.337 364.217 322.337C369.717 322.057 374.892 319.645 378.644 315.614C382.396 311.583 384.431 306.249 384.317 300.743C384.317 268.764 335.936 289.536 335.936 248.141C335.936 225.427 350.88 213.136 369.298 213.136C377.443 212.956 385.475 215.078 392.461 219.262C390.443 224.743 388.82 230.362 387.604 236.074H385.736C383.046 228.266 375.911 220.421 368.327 220.421C358.09 220.421 349.647 227.332 349.647 240.146C349.647 270.445 398.028 254.306 398.028 292.225C398.028 317.593 378.377 329.585 360.295 329.585C351.239 329.578 342.374 326.986 334.741 322.113C336.575 316.429 338.01 310.624 339.037 304.741L340.681 304.703ZM425.599 149.774C428.326 149.998 430.979 150.484 433.818 150.484C436.657 150.484 438.974 149.998 442.037 149.774V236.037C449.21 221.579 460.455 213.098 475.025 213.098C498.786 213.098 508.014 229.387 508.014 259.274V327.904C504.913 327.642 502.522 327.194 499.795 327.194C497.067 327.194 494.266 327.68 491.576 327.904V264.692C491.576 238.54 486.308 225.352 468.861 225.352C450.406 225.352 442.037 238.652 442.037 263.272V327.904C438.974 327.642 436.545 327.194 433.818 327.194C431.091 327.194 428.363 327.68 425.599 327.904V149.774Z" fill="#231F20"/>
</svg>
