<!DOCTYPE svg PUBLIC "-//W3C//DTD SVG 1.1//EN" "http://www.w3.org/Graphics/SVG/1.1/DTD/svg11.dtd">
<!-- Uploaded to: SVG Repo, www.svgrepo.com, Transformed by: SVG Repo Mixer Tools -->
<svg version="1.1" id="Layer_1" xmlns="http://www.w3.org/2000/svg" xmlns:xlink="http://www.w3.org/1999/xlink" viewBox="0 0 509.287 509.287" xml:space="preserve" width="800px" height="800px" fill="#000000">
<g id="SVGRepo_bgCarrier" stroke-width="0"/>
<g id="SVGRepo_tracerCarrier" stroke-linecap="round" stroke-linejoin="round"/>
<g id="SVGRepo_iconCarrier"> <circle style="fill:#055fb5;" cx="254.644" cy="254.644" r="254.644"/> <path style="fill:#F1F3F7;" d="M54.591,345.515v42.045c0,5.764,4.747,10.511,10.511,10.511h378.744 c5.764,0,10.511-4.747,10.511-10.511v-42.045H54.591z"/> <path style="fill:#646B79;" d="M454.697,123.083c0-5.764-4.747-10.511-10.511-10.511H65.102c-5.764,0-10.511,4.747-10.511,10.511 v222.432h399.767V123.083H454.697z"/> <rect x="76.291" y="132.577" style="fill:#6EB1E1;" width="356.366" height="192.932"/> <rect x="76.291" y="323.475" style="fill:#4F96C1;" width="356.366" height="2.373"/> <rect x="76.291" y="132.577" style="fill:#91D1F9;" width="356.366" height="2.374"/> <circle style="fill:#055fb5;" cx="254.644" cy="371.624" r="10.172"/> <rect x="196.323" y="398.072" style="fill:#DEDEDF;" width="116.98" height="55.269"/> <g> <path style="fill:#F1F3F7;" d="M359.078,453.34H150.209c-6.781,0-12.546,5.425-12.546,12.546c0,7.12,5.425,12.546,12.546,12.546 h208.869c6.781,0,12.546-5.425,12.546-12.546C371.624,458.766,365.86,453.34,359.078,453.34z"/> <path style="fill:#F1F3F7;" d="M407.566,44.419H278.718c-3.052,0-5.764,2.374-5.764,5.764v229.891c0,3.052,2.374,5.764,5.764,5.764 h128.848c3.052,0,5.764-2.374,5.764-5.764V50.183C412.991,47.131,410.617,44.419,407.566,44.419z"/> </g> <rect x="276.344" y="61.372" style="fill:#6EB1E1;" width="133.256" height="200.392"/> <g> <circle style="fill:#DEDEDF;" cx="342.803" cy="273.971" r="8.138"/> <path style="fill:#DEDEDF;" d="M355.009,51.539h-24.074c-1.017,0-1.695,0.678-1.695,1.695c0,1.017,0.678,1.695,1.695,1.695h24.074 c1.017,0,1.695-0.678,1.695-1.695C356.705,52.556,356.026,51.539,355.009,51.539z"/> </g> </g>
</svg>