<svg xmlns="http://www.w3.org/2000/svg" xmlns:xlink="http://www.w3.org/1999/xlink" width="501" height="75" fill="none" xmlns:v="https://vecta.io/nano"><path d="M37.495.002c-9.944 0-19.481 3.95-26.513 10.982S0 27.553 0 37.498c0 .405 0 .806.028 1.206.234-6.833 2.459-13.45 6.402-19.036S15.863 9.77 22.223 7.262s13.316-3.103 20.01-1.712 12.837 4.708 17.671 9.543 8.152 10.977 9.543 17.672.796 13.649-1.712 20.01-6.82 11.85-12.406 15.793-12.202 6.168-19.036 6.402c.401 0 .801.028 1.202.028a37.5 37.5 0 0 0 26.788-10.833A37.5 37.5 0 0 0 75.416 37.5a37.5 37.5 0 0 0-11.133-26.665 37.5 37.5 0 0 0-12.309-8.1A37.5 37.5 0 0 0 37.495.002h0z" fill="url(#A)"/><path d="M59.735 50.675h-28.23c-1.011-.019-1.992-.349-2.81-.944s-1.433-1.427-1.762-2.383l-7.988-21.571a4.93 4.93 0 0 0-4.571-3.299h-3.926" stroke="url(#B)" stroke-width="4" stroke-linecap="round" stroke-linejoin="round"/><g stroke-width="3" stroke-miterlimit="10"><path d="M31.722 56.293l.9 2.611c.081.238.235.444.44.59s.45.225.701.225h2.526c.189 0 .375-.044.544-.129s.315-.208.427-.36.187-.328.219-.514.02-.377-.035-.557l-.801-2.611c-.075-.248-.228-.465-.436-.62s-.46-.238-.719-.238h-2.616a1.21 1.21 0 0 0-.988.505 1.21 1.21 0 0 0-.162 1.097h0z" stroke="url(#C)"/><path d="M52.666 56.293l.9 2.611a1.2 1.2 0 0 0 .439.591c.205.146.45.225.702.224h2.526c.189 0 .375-.044.544-.129s.315-.208.427-.36a1.21 1.21 0 0 0 .219-.514c.032-.186.02-.377-.036-.557l-.801-2.611c-.075-.248-.228-.465-.436-.62s-.46-.238-.719-.238h-2.62a1.21 1.21 0 0 0-.984.507c-.112.157-.185.338-.213.528a1.21 1.21 0 0 0 .052.567z" stroke="url(#D)"/></g><path d="M50.229 37.559l-.976 2.314-3.026 7.244a.32.32 0 0 1-.354.222H41.28c-.085.009-.17-.012-.24-.061s-.12-.121-.142-.203l-2.611-6.4-1.277-3.12c-.062-.149-.093-.31-.09-.471l.052-14.275a.35.35 0 0 1 .042-.231l6.598 16.844c.123-.033.123-.132.151-.203l3.695-9.741 2.521-6.645c.132-.344.085-.287.405-.287h4.981c.325 0 .306 0 .302.292l-.08 24.158v.057c0 .24 0 .24-.245.24h-4.816c-.297 0-.297 0-.297-.311l.033-9.049c.014-.125.003-.252-.033-.372z" fill="url(#E)"/><path d="M27.749 27.238l.372-.971 1.381-3.582c.108-.273.047-.25.377-.25h4.897.165c.108 0 .156.038.146.146v.193l-.085 24.153c0 .401.042.349-.358.344h-4.289c-.353 0-.33.038-.325-.325l.066-19.323c0-.424.047-.368-.363-.372l-1.984-.014z" fill="url(#F)"/><path d="M500.62 10H351.38V65.09H500.62V10Z" fill="url(#G)"/><path d="M280.52 58.28a26.72 26.72 0 0 1-18.15 3 9.94 9.94 0 0 1-4.62-1.87 7.7 7.7 0 0 1-2.57-4.54l-.19-1-.23-2c-.67-8.07 2.07-11.42 10.22-12.34l14.5-1.44c.67-5.06-.86-7.15-5.59-7.17a48.48 48.48 0 0 0-5 0 8.23 8.23 0 0 0-4.59 1.82c-.292.244-.563.511-.81.8-.23.25-.41.59-.74.72a2.09 2.09 0 0 1-1.11 0c-1.035-.153-2.044-.446-3-.87a2.77 2.77 0 0 1-1.151-1.032c-.278-.446-.423-.962-.419-1.488-.07-1.24.94-2.24 1.79-3 .88-.795 1.896-1.425 3-1.86.709-.278 1.442-.489 2.19-.63a45.81 45.81 0 0 1 8.81-.91c3.025.039 6.04.374 9 1 4.25.9 7 3.68 7.26 8.11.32 6.25.16 12.53.4 18.79.06 1.6 1 3.16 1.28 4.77a3.41 3.41 0 0 1-.28 2.42c-1.66 2.25-5.68 2.49-8 .61-.66-.48-1.23-1.14-2-1.89zm-.81-15.91l-11.81 1.36c-3.22.49-3.52 3-3.56 5.62s.48 5.22 3.5 5.26c3.377-.09 6.733-.57 10-1.43.474-.246.883-.603 1.191-1.039s.506-.941.579-1.471c.25-2.62.1-5.28.1-8.3z" fill="url(#H)"/><path d="M449.64 59.05c-1.82 3.52-5.73 3.64-10.44-.72a26.84 26.84 0 0 1-18.28 2.95c-4.39-.76-6.51-3-7.17-7.32-.12-.85-.23-1.7-.28-2.55-.48-7.59 2.26-10.94 9.87-11.84 4.93-.58 9.89-1 14.8-1.45a7.99 7.99 0 0 0 .21-1.6c.035-.473.035-.947 0-1.42a4.85 4.85 0 0 0-.68-2.19c-1.24-1.93-3.83-2-5.87-2h-2.05c-1.237-.049-2.475.069-3.68.35a6.72 6.72 0 0 0-3.37 2c-.274.372-.593.708-.95 1a2.19 2.19 0 0 1-1.32.13c-.522-.062-1.039-.156-1.55-.28a4.8 4.8 0 0 1-1.79-.71 3.21 3.21 0 0 1-1.25-1.94 2.95 2.95 0 0 1 .117-1.269 2.94 2.94 0 0 1 .643-1.101c.361-.562.795-1.073 1.29-1.52 1.061-.829 2.3-1.401 3.62-1.67 1.468-.391 2.957-.698 4.46-.92 1.3-.18 2.6-.3 3.9-.35a39.4 39.4 0 0 1 12 1.43 7.56 7.56 0 0 1 4.118 2.511c1.062 1.264 1.681 2.841 1.762 4.49.28 4.69.27 9.39.37 14.09 0 1.74.07 3.49.24 5.22a43.27 43.27 0 0 0 .93 5.19c.06.26.11.52.16.77s.26.59.19.72zm-11.19-16.69c-4.24.49-8.14.8-12 1.43-3.23.53-3.34 3.22-3.37 5.75s.54 5 3.4 5.05a43.73 43.73 0 0 0 10-1.38c.82-.18 1.76-1.73 1.87-2.74.28-2.52.1-5.08.1-8.11z" fill="#fff"/><path d="M188.41 43.84c-.051.117-.081.242-.09.37a2.06 2.06 0 0 0 0 .43c-.015.283-.015.567 0 .85v.26l.08 1.87c.42 4.4 2.09 6.32 6.52 7 4.8.72 9.55.71 13.76-2.37.1-.07 1 .75 1.07.85a5 5 0 0 1 .76 1 2.81 2.81 0 0 1 .38 2c-.29 1.37-1.58 2.16-2.74 2.73-1.87.93-3.844 1.635-5.88 2.1-2.911.506-5.869.684-8.82.53-2.326.056-4.651-.176-6.92-.69a10.3 10.3 0 0 1-5.44-3.14 7.5 7.5 0 0 1-.35-.44c-1.049-1.491-1.652-3.249-1.74-5.07-.417-6.039-.353-12.101.19-18.13.44-4.9 3.95-8 8.75-8.48a89.59 89.59 0 0 1 16.86-.16c5.67.52 7.84 3.34 8.48 9 .92 8.37.24 9.14-8 9.15l-16.1.05c-.25.03-.64.07-.77.29zm0-5.27h14.84c.07-2.8 1.15-6-1.48-7.52-3.42-2-7.5-1.54-11 .18-2.98 1.46-2.67 4.46-2.34 7.34h-.02z" fill="url(#I)"/><path d="M146.27 61.12h-9.85v-20.9-7.05a7.64 7.64 0 0 1 .4-3 3.55 3.55 0 0 1 1.77-1.71l1.52-.63c2.009-.8 4.075-1.448 6.18-1.94a45.47 45.47 0 0 1 6.34-1c2.148-.188 4.305-.242 6.46-.16l3.49.25c5.58.56 8.24 3.54 8.38 9.38.22 8.82.06 17.65.06 26.71h-10.13v-2.95l-.11-23.09c-.07-4.44-.57-4.82-5.13-4.66-1.625.04-3.245.19-4.85.45-4.45.76-4.48.79-4.51 5.38v21.66l-.02 3.26z" fill="url(#J)"/><path d="M243.4 35.59c-.472-.719-1.014-1.389-1.62-2a12.11 12.11 0 0 0-2-1.65 12 12 0 0 0-4.78-1.82c-2.15-.33-5.28-.3-6.77 1.55a3.19 3.19 0 0 0-.542 1.61 3.2 3.2 0 0 0 .362 1.66c1.45 3.41 5.83 3.73 8.94 4.62 1.92.55 3.9.94 5.81 1.56 5.73 1.85 7.4 5 6.61 12.39-.55 5.06-2.83 7.44-8.53 7.75a169.91 169.91 0 0 1-17.19-.11c-2.26-.1-4.7-1-5.13-3.77a5.32 5.32 0 0 1 2.83-6c4 4.2 9.2 5.23 14.85 4.93 2.59-.14 4.16-1.14 4.42-3.83.32-3.28-.56-4.72-3.6-5.47-3.24-.82-6.56-1.39-9.76-2.33-6.75-2-9.44-6.86-7.78-13.66a6.81 6.81 0 0 1 6.3-5.44 130.16 130.16 0 0 1 15.17-.53c2.31 0 5 .51 5.57 3.52s-.64 5.29-3.16 7.02z" fill="url(#K)"/><path d="M297.11 10h9.46v51h-9.46V10z" fill="url(#L)"/><path d="M129 35.68c-.48-6-3.89-9.69-10-10.28a91.15 91.15 0 0 0-16.27 0c-5.33.45-8.62 3.4-9.2 8.63-.635 6.106-.735 12.256-.3 18.38a2.1 2.1 0 0 1 0 .36l.06.46c0 .1 0 .23.07.37.016.145.043.289.08.43.012.085.032.169.06.25.111.472.279.929.5 1.36v.06a.93.93 0 0 0 .07.15 7.86 7.86 0 0 0 2.25 2.93c.32.259.654.499 1 .72.27.17.57.35.9.52l.18.09a15.45 15.45 0 0 0 4.6 1.52 39.6 39.6 0 0 0 13.39.16c2.013-.161 3.993-.608 5.88-1.33a11.66 11.66 0 0 0 4.19-3.14 12.79 12.79 0 0 0 2.54-7.2 85.33 85.33 0 0 0 0-14.44zm-13.92 20.5c-.94.13-1.89.32-2.84.37-6.38.31-8.63-1.41-9.14-7.75a95.53 95.53 0 0 1 0-13.64c.19-3.21 1.8-4.39 5-4.76 8.5-1 10.93 1.14 11.15 9.67v2.8l-.13 7.65-.16 1.78a4.15 4.15 0 0 1-1.203 2.67c-.713.714-1.661 1.144-2.667 1.21h-.01z" fill="url(#M)"/><path d="M323.58 43.76c-.051.117-.081.242-.09.37v.42c-.015.287-.015.574 0 .86.005.087.005.173 0 .26l.08 1.87c.42 4.39 2.09 6.32 6.52 7 4.8.73 9.56.71 13.76-2.37.1-.07 1 .76 1.07.86a4.73 4.73 0 0 1 .76 1 2.8 2.8 0 0 1 .38 2c-.29 1.36-1.58 2.16-2.74 2.73-1.865.931-3.836 1.633-5.87 2.09-2.914.505-5.876.686-8.83.54a28.23 28.23 0 0 1-6.92-.69 10.36 10.36 0 0 1-5.44-3.14c-.12-.15-.24-.29-.35-.45-1.046-1.468-1.656-3.201-1.76-5-.412-6.039-.348-12.101.19-18.13.44-4.9 4-8 8.76-8.49 5.599-.58 11.241-.63 16.85-.15 5.68.52 7.85 3.34 8.48 9 .93 8.36.24 9.14-8 9.15h-16.1c-.23.01-.61.04-.75.27zm0-5.27h14.85c.07-2.8 1.15-6-1.49-7.52-3.41-2-7.5-1.54-11 .18-2.94 1.46-2.67 4.46-2.34 7.34h-.02z" fill="url(#N)"/><path d="M406.28 61.12h-9.75l-.18-7.64-.23-19c-.09-3.76-.9-4.3-4.54-4.07-4.76.32-5.45 1-5.49 5.8v21.66 3.25h-10.22v-12l-.11-14.81c-.11-3.43-1.08-4.15-4.47-3.92a6.32 6.32 0 0 0-1.15.12c-4.47.75-4.67.92-4.7 5.43v11.88 6.85 6.45h-9.84v-6.43-23c0-1.58.28-2.7 1.88-3.39 8-3.48 16.16-5.18 24.72-1.86a4.38 4.38 0 0 0 2.68-.21 28 28 0 0 1 13.88-1.12c4.78.83 7.37 3.27 7.51 8 .22 9.19.01 18.45.01 28.01zm69.94-29.11a6.26 6.26 0 0 1-2.39 1 1.79 1.79 0 0 1-.815-.18c-.254-.123-.475-.305-.645-.53-.21-.22-.4-.45-.57-.66a4.64 4.64 0 0 0-2.54-1.5c-2.84-.66-3.79 2.11-3.78 4.38v23.35 3.25h-9.93V45.54v-1.22-7-1.09-.11-2.19c-.076-1.075-.005-2.154.21-3.21a4.48 4.48 0 0 1 2.37-2.71 31.68 31.68 0 0 1 12.12-3.15c2.62-.19 6.92-.24 7.75 3a2.81 2.81 0 0 1 .11.65 3.57 3.57 0 0 1-1.89 3.5zm16.68 1.53v12l.11 5.94a7.42 7.42 0 0 0 1 3.5c.61 1.07 1.67 1.89 2.08 3.09s-.75 2.31-1.73 2.83a9 9 0 0 1-4.31.77 6.77 6.77 0 0 1-3.017-.553c-.95-.413-1.792-1.038-2.463-1.827-2.21-3-1.71-7.27-1.73-10.78v-12.7-5.93h-2.94v-4.7h2.93v-4.81c.12-5.28 3-5.58 5.55-5.48.668-.023 1.336.003 2 .08 2.88 0 2.56 2.34 2.56 2.34v7.87h5.69v4.7h-5.69v3.63l-.04.03z" fill="#fff"/><defs><linearGradient id="A" x1="7.578" y1="10.196" x2="76.871" y2="63.211" xlink:href="#O"><stop stop-color="#ff8a11"/><stop offset="1" stop-color="#ff471f"/></linearGradient><linearGradient id="B" x1="7128.45" y1="2209.99" x2="12479.5" y2="2209.99" xlink:href="#O"><stop stop-color="#ff8a11"/><stop offset="1" stop-color="#ff471f"/></linearGradient><linearGradient id="C" x1="1140.64" y1="665.061" x2="1230.51" y2="665.061" xlink:href="#O"><stop stop-color="#ff8a11"/><stop offset="1" stop-color="#ff471f"/></linearGradient><linearGradient id="D" x1="1420.79" y1="665.061" x2="1510.65" y2="665.061" xlink:href="#O"><stop stop-color="#ff8a11"/><stop offset="1" stop-color="#ff471f"/></linearGradient><linearGradient id="E" x1="2792.01" y1="344.708" x2="6066.79" y2="2238.68" xlink:href="#O"><stop stop-color="#ff8a11"/><stop offset="1" stop-color="#ff471f"/></linearGradient><linearGradient id="F" x1="1015.88" y1="744.834" x2="2643.33" y2="1112.65" xlink:href="#O"><stop stop-color="#ff8a11"/><stop offset="1" stop-color="#ff471f"/></linearGradient><linearGradient id="G" x1="-8816.43" y1="10059" x2="84521.8" y2="22892.5" xlink:href="#O"><stop stop-color="#ff8a11"/><stop offset="1" stop-color="#ff471f"/></linearGradient><linearGradient id="H" x1="-1996.39" y1="7325.93" x2="21043.3" y2="8462.8" xlink:href="#O"><stop stop-color="#ff471f"/><stop offset=".203" stop-color="#ff8a11"/></linearGradient><linearGradient id="I" x1="-1993.3" y1="7311.13" x2="20171.2" y2="8386.11" xlink:href="#O"><stop stop-color="#ff471f"/><stop offset=".417" stop-color="#ff8a11"/></linearGradient><linearGradient id="J" x1="-2029.01" y1="7376.04" x2="20029.1" y2="8442.41" xlink:href="#O"><stop stop-color="#ff471f"/><stop offset=".505" stop-color="#ff8a11"/></linearGradient><linearGradient id="K" x1="-1721.12" y1="7223.61" x2="18109" y2="8085.39" xlink:href="#O"><stop stop-color="#ff471f"/><stop offset=".229" stop-color="#ff8a11"/></linearGradient><linearGradient id="L" x1="-286.005" y1="9529.15" x2="5741.73" y2="9585.9" xlink:href="#O"><stop stop-color="#ff471f"/><stop offset=".151" stop-color="#ff8a11"/></linearGradient><linearGradient id="M" x1="-2179.84" y1="7640.12" x2="20921.7" y2="8784.15" xlink:href="#O"><stop stop-color="#ff471f"/><stop offset="1" stop-color="#ff8a11"/></linearGradient><linearGradient id="N" x1="-1845.96" y1="7047" x2="20318.5" y2="8123.43" xlink:href="#O"><stop stop-color="#ff8a11"/><stop offset="1" stop-color="#ff471f"/></linearGradient><linearGradient id="O" gradientUnits="userSpaceOnUse"/></defs></svg>