<svg xmlns="http://www.w3.org/2000/svg" xmlns:xlink="http://www.w3.org/1999/xlink" width="408" height="230" fill="none" xmlns:v="https://vecta.io/nano"><g clip-path="url(#O)"><path d="M203.81 0a79.56 79.56 0 0 0-79.56 79.56l.06 2.56a74.45 74.45 0 0 1 47.095-66.716 74.45 74.45 0 0 1 79.956 16.616 74.45 74.45 0 0 1 16.615 79.956c-5.322 13.497-14.472 25.144-26.325 33.511a74.45 74.45 0 0 1-40.391 13.584c.85 0 1.7.06 2.55.06a79.58 79.58 0 0 0 30.723-5.798 79.57 79.57 0 0 0 26.117-17.188 79.55 79.55 0 0 0 17.479-25.923c4.055-9.712 6.143-20.132 6.143-30.656s-2.088-20.944-6.143-30.656a79.55 79.55 0 0 0-17.479-25.923 79.56 79.56 0 0 0-26.117-17.187A79.57 79.57 0 0 0 203.81 0h0z" fill="url(#A)"/><path d="M251 107.52h-59.9a10.47 10.47 0 0 1-5.962-2.003c-1.735-1.263-3.04-3.028-3.738-5.057l-16.95-45.77c-.707-2.019-2.016-3.772-3.751-5.023a10.46 10.46 0 0 0-5.949-1.977h-8.33" stroke="url(#B)" stroke-width="4" stroke-linecap="round" stroke-linejoin="round"/><g stroke-width="3" stroke-miterlimit="10"><path d="M191.56 119.44l1.91 5.54c.173.505.499.942.933 1.253a2.56 2.56 0 0 0 1.487.477h5.36a2.56 2.56 0 0 0 1.153-.273c.358-.18.669-.442.907-.764s.398-.695.466-1.09.041-.8-.076-1.183l-1.7-5.54c-.159-.526-.483-.987-.924-1.315s-.976-.505-1.526-.505H194a2.57 2.57 0 0 0-2.096 1.072c-.238.332-.394.717-.454 1.122a2.57 2.57 0 0 0 .11 1.206h0z" stroke="url(#C)"/><path d="M236 119.44l1.91 5.54c.172.505.497.944.932 1.254s.954.477 1.488.476h5.36a2.56 2.56 0 0 0 1.153-.273c.358-.18.669-.442.907-.764s.398-.695.465-1.09a2.56 2.56 0 0 0-.075-1.183l-1.7-5.54c-.159-.526-.483-.987-.924-1.315s-.976-.505-1.526-.505h-5.56a2.56 2.56 0 0 0-1.174.285c-.364.187-.677.458-.915.791s-.392.716-.451 1.121a2.56 2.56 0 0 0 .11 1.203z" stroke="url(#D)"/></g><path d="M230.83 79.69l-2.07 4.91-6.42 15.37c-.048.155-.15.288-.288.374a.68.68 0 0 1-.462.096h-9.75a.75.75 0 0 1-.51-.128c-.149-.103-.255-.257-.3-.432l-5.54-13.58-2.71-6.62a2.47 2.47 0 0 1-.19-1l.11-30.29a.74.74 0 0 1 .09-.49l14 35.74c.26-.07.26-.28.32-.43l7.84-20.67 5.35-14.1c.28-.73.18-.61.86-.61h10.57c.69 0 .65 0 .64.62l-.17 51.26v.12c0 .51 0 .51-.52.51h-10.22c-.63 0-.63 0-.63-.66l.07-19.2a1.99 1.99 0 0 0-.07-.79z" fill="url(#E)"/><path d="M183.13 57.79l.79-2.06 2.93-7.6c.23-.58.1-.53.8-.53h10.39.35c.23 0 .33.08.31.31v.41l-.18 51.25c0 .85.09.74-.76.73h-9.1c-.75 0-.7.08-.69-.69l.14-41c0-.9.1-.78-.77-.79l-4.21-.03z" fill="url(#F)"/><path d="M407.62 174.88H258.38v55.09h149.24v-55.09z" fill="url(#G)"/><path d="M187.52 223.16a26.72 26.72 0 0 1-18.15 3c-1.674-.221-3.264-.864-4.62-1.87a7.7 7.7 0 0 1-2.57-4.54l-.19-1-.23-2c-.67-8.07 2.07-11.42 10.22-12.34l14.5-1.44c.67-5.06-.86-7.15-5.59-7.17a48.48 48.48 0 0 0-5 0c-1.68.123-3.282.758-4.59 1.82a6.8 6.8 0 0 0-.81.8c-.23.25-.41.59-.74.72a2.09 2.09 0 0 1-1.11 0c-1.035-.153-2.044-.446-3-.87a2.77 2.77 0 0 1-1.151-1.032c-.278-.446-.423-.962-.419-1.488-.07-1.24.94-2.24 1.79-3 .88-.795 1.896-1.425 3-1.86a12.18 12.18 0 0 1 2.19-.63c2.9-.587 5.851-.892 8.81-.91a46.39 46.39 0 0 1 9 1c4.25.9 7 3.68 7.26 8.11.32 6.25.16 12.53.4 18.79.06 1.6 1 3.16 1.28 4.77a3.41 3.41 0 0 1-.28 2.42c-1.66 2.25-5.68 2.49-8 .61-.66-.48-1.23-1.14-2-1.89zm-.81-15.91l-11.81 1.36c-3.22.49-3.52 3-3.56 5.62s.48 5.22 3.5 5.26c3.377-.09 6.733-.57 10-1.43a3.35 3.35 0 0 0 1.191-1.039c.308-.437.506-.941.579-1.471.25-2.62.1-5.28.1-8.3z" fill="url(#H)"/><path d="M356.64 223.93c-1.82 3.52-5.73 3.64-10.44-.72a26.84 26.84 0 0 1-18.28 2.95c-4.39-.76-6.51-3-7.17-7.32-.12-.85-.23-1.7-.28-2.55-.48-7.59 2.26-10.94 9.87-11.84 4.93-.58 9.89-1 14.8-1.45a7.99 7.99 0 0 0 .21-1.6c.035-.473.035-.947 0-1.42a4.85 4.85 0 0 0-.68-2.19c-1.24-1.93-3.83-2-5.87-2h-2.05a13.8 13.8 0 0 0-3.68.35 6.72 6.72 0 0 0-3.37 2c-.274.372-.593.708-.95 1a2.19 2.19 0 0 1-1.32.13c-.522-.062-1.039-.156-1.55-.28-.639-.113-1.247-.355-1.79-.71a3.21 3.21 0 0 1-1.25-1.94c-.054-.427-.014-.86.117-1.269s.351-.786.643-1.101c.361-.562.795-1.073 1.29-1.52a8.7 8.7 0 0 1 3.62-1.67c1.468-.391 2.957-.698 4.46-.92 1.3-.18 2.6-.3 3.9-.35 4.05-.143 8.097.339 12 1.43 1.61.365 3.056 1.247 4.118 2.511s1.681 2.84 1.762 4.489c.28 4.69.27 9.39.37 14.09 0 1.74.07 3.49.24 5.22a43.3 43.3 0 0 0 .93 5.19c.06.26.11.52.16.77s.26.59.19.72zm-11.19-16.69c-4.24.49-8.14.8-12 1.43-3.23.53-3.34 3.22-3.37 5.75s.54 5 3.4 5.05c3.375-.072 6.731-.536 10-1.38.82-.18 1.76-1.73 1.87-2.74.28-2.52.1-5.08.1-8.11z" fill="#fff"/><path d="M95.41 208.72c-.051.117-.081.242-.09.37-.015.143-.015.287 0 .43a7.98 7.98 0 0 0 0 .85v.26l.08 1.87c.42 4.4 2.09 6.32 6.52 7 4.8.72 9.55.71 13.76-2.37.1-.07 1 .75 1.07.85a5 5 0 0 1 .76 1 2.81 2.81 0 0 1 .38 2c-.29 1.37-1.58 2.16-2.74 2.73a26.41 26.41 0 0 1-5.88 2.1c-2.911.506-5.869.684-8.82.53a28.25 28.25 0 0 1-6.92-.69c-2.096-.455-3.998-1.553-5.44-3.14a7.5 7.5 0 0 1-.35-.44A9.62 9.62 0 0 1 86 217a114.33 114.33 0 0 1 .19-18.13c.44-4.9 3.95-8 8.75-8.48a89.59 89.59 0 0 1 16.86-.16c5.67.52 7.84 3.34 8.48 9 .92 8.37.24 9.14-8 9.15l-16.1.05c-.25.03-.64.07-.77.29zm0-5.27h14.84c.07-2.8 1.15-6-1.48-7.52-3.42-2-7.5-1.54-11 .18-2.98 1.46-2.67 4.46-2.34 7.34h-.02z" fill="url(#I)"/><path d="M53.27 226h-9.85v-20.9-7.05a7.63 7.63 0 0 1 .4-3 3.55 3.55 0 0 1 1.77-1.71l1.52-.63c2.009-.8 4.074-1.448 6.18-1.94a45.57 45.57 0 0 1 6.34-1c2.148-.188 4.305-.242 6.46-.16l3.49.25c5.58.56 8.24 3.54 8.38 9.38.22 8.82.06 17.65.06 26.71H67.89V223l-.11-23.09c-.07-4.44-.57-4.82-5.13-4.66-1.625.04-3.245.19-4.85.45-4.45.76-4.48.79-4.51 5.38v21.66l-.02 3.26z" fill="url(#J)"/><path d="M150.4 200.47c-.471-.719-1.014-1.389-1.62-2a12.12 12.12 0 0 0-2-1.65A12 12 0 0 0 142 195c-2.15-.33-5.28-.3-6.77 1.55a3.19 3.19 0 0 0-.542 1.61 3.2 3.2 0 0 0 .362 1.66c1.45 3.41 5.83 3.73 8.94 4.62 1.92.55 3.9.94 5.81 1.56 5.73 1.85 7.4 5 6.61 12.39-.55 5.06-2.83 7.44-8.53 7.75a169.94 169.94 0 0 1-17.19-.11c-2.26-.1-4.7-1-5.13-3.77a5.32 5.32 0 0 1 .365-3.495c.514-1.09 1.384-1.973 2.465-2.505 4 4.2 9.2 5.23 14.85 4.93 2.59-.14 4.16-1.14 4.42-3.83.32-3.28-.56-4.72-3.6-5.47-3.24-.82-6.56-1.39-9.76-2.33-6.75-2-9.44-6.86-7.78-13.66.301-1.476 1.082-2.81 2.222-3.795a6.81 6.81 0 0 1 4.078-1.645c5.042-.472 10.107-.649 15.17-.53 2.31 0 5 .51 5.57 3.52s-.64 5.29-3.16 7.02z" fill="url(#K)"/><path d="M204.11 174.88h9.46v51h-9.46v-51z" fill="url(#L)"/><path d="M36 200.56c-.48-6-3.89-9.69-10-10.28a91.15 91.15 0 0 0-16.27 0c-5.33.45-8.62 3.4-9.2 8.63a105.44 105.44 0 0 0-.3 18.38 2.1 2.1 0 0 1 0 .36l.06.46c0 .1 0 .23.07.37.016.145.043.289.08.43a1.29 1.29 0 0 0 .06.25 5.99 5.99 0 0 0 .5 1.36v.06c.019.052.042.102.07.15.507 1.142 1.278 2.146 2.25 2.93a10.88 10.88 0 0 0 1 .72c.27.17.57.35.9.52l.18.09c1.444.745 2.996 1.258 4.6 1.52 4.422.813 8.95.867 13.39.16 2.013-.161 3.993-.609 5.88-1.33 1.617-.715 3.049-1.789 4.19-3.14A12.79 12.79 0 0 0 36 215a85.27 85.27 0 0 0 0-14.44zm-13.92 20.5c-.94.13-1.89.32-2.84.37-6.38.31-8.63-1.41-9.14-7.75-.325-4.541-.325-9.099 0-13.64.19-3.21 1.8-4.39 5-4.76 8.5-1 10.93 1.14 11.15 9.67v2.8l-.13 7.65-.16 1.78a4.15 4.15 0 0 1-3.87 3.88h-.01z" fill="url(#M)"/><path d="M230.58 208.64a1.13 1.13 0 0 0-.09.37v.42c-.015.287-.015.574 0 .86.005.087.005.173 0 .26l.08 1.87c.42 4.39 2.09 6.32 6.52 7 4.8.73 9.56.71 13.76-2.37.1-.07 1 .76 1.07.86.297.298.552.634.76 1a2.8 2.8 0 0 1 .38 2c-.29 1.36-1.58 2.16-2.74 2.73a25.81 25.81 0 0 1-5.87 2.09c-2.915.505-5.876.686-8.83.54a28.25 28.25 0 0 1-6.92-.69 10.36 10.36 0 0 1-5.44-3.14c-.12-.15-.24-.29-.35-.45-1.046-1.467-1.656-3.201-1.76-5-.412-6.039-.348-12.101.19-18.13.44-4.9 4-8 8.76-8.49 5.599-.58 11.241-.63 16.85-.15 5.68.52 7.85 3.34 8.48 9 .93 8.36.24 9.14-8 9.15h-16.1c-.23.01-.61.04-.75.27zm0-5.27h14.85c.07-2.8 1.15-6-1.49-7.52-3.41-2-7.5-1.54-11 .18-2.94 1.46-2.67 4.46-2.34 7.34h-.02z" fill="url(#N)"/><g fill="#fff"><path d="M313.28 226h-9.75l-.18-7.64-.23-19c-.09-3.76-.9-4.3-4.54-4.07-4.76.32-5.45 1-5.49 5.8v21.66V226h-10.22v-12l-.11-14.81c-.11-3.43-1.08-4.15-4.47-3.92a6.32 6.32 0 0 0-1.15.12c-4.47.75-4.67.92-4.7 5.43v11.88 6.85V226h-9.84v-6.43-23c0-1.58.28-2.7 1.88-3.39 8-3.48 16.16-5.18 24.72-1.86a4.38 4.38 0 0 0 2.68-.21 28.01 28.01 0 0 1 13.88-1.12c4.78.83 7.37 3.27 7.51 8 .22 9.19.01 18.45.01 28.01zm69.94-29.11a6.26 6.26 0 0 1-2.39 1c-.282.005-.561-.057-.815-.18s-.475-.305-.645-.53c-.21-.22-.4-.45-.57-.66a4.64 4.64 0 0 0-2.54-1.5c-2.84-.66-3.79 2.11-3.78 4.38v23.35V226h-9.93v-15.58-1.22-7-1.09-.11-2.19c-.076-1.075-.005-2.154.21-3.21.186-.591.493-1.137.901-1.604a4.48 4.48 0 0 1 1.469-1.106 31.68 31.68 0 0 1 12.12-3.15c2.62-.19 6.92-.24 7.75 3 .062.212.099.43.11.65.068.705-.076 1.414-.412 2.038a3.57 3.57 0 0 1-1.478 1.462h0zm16.68 1.53v12l.11 5.94c.037 1.231.381 2.434 1 3.5.61 1.07 1.67 1.89 2.08 3.09s-.75 2.31-1.73 2.83c-1.351.607-2.832.872-4.31.77-1.035.049-2.067-.14-3.017-.553s-1.793-1.038-2.463-1.827c-2.21-3-1.71-7.27-1.73-10.78v-12.7-5.93h-2.94v-4.7h2.93v-4.81c.12-5.28 3-5.58 5.55-5.48.668-.023 1.336.003 2 .08 2.88 0 2.56 2.34 2.56 2.34v7.87h5.69v4.7h-5.69v3.63l-.04.03z"/></g></g><defs><linearGradient id="A" x1="140.33" y1="21.63" x2="287.36" y2="134.12" xlink:href="#P"><stop stop-color="#ff8a11"/><stop offset="1" stop-color="#ff471f"/></linearGradient><linearGradient id="B" x1="15249.9" y1="4689.3" x2="26604.1" y2="4689.3" xlink:href="#P"><stop stop-color="#ff8a11"/><stop offset="1" stop-color="#ff471f"/></linearGradient><linearGradient id="C" x1="2544.54" y1="1411.17" x2="2735.22" y2="1411.17" xlink:href="#P"><stop stop-color="#ff8a11"/><stop offset="1" stop-color="#ff471f"/></linearGradient><linearGradient id="D" x1="3138.97" y1="1411.17" x2="3329.66" y2="1411.17" xlink:href="#P"><stop stop-color="#ff8a11"/><stop offset="1" stop-color="#ff471f"/></linearGradient><linearGradient id="E" x1="6048.52" y1="731.42" x2="12997.2" y2="4750.19" xlink:href="#P"><stop stop-color="#ff8a11"/><stop offset="1" stop-color="#ff471f"/></linearGradient><linearGradient id="F" x1="2279.81" y1="1580.43" x2="5733.03" y2="2360.89" xlink:href="#P"><stop stop-color="#ff8a11"/><stop offset="1" stop-color="#ff471f"/></linearGradient><linearGradient id="G" x1="-8909.43" y1="10223.8" x2="84428.8" y2="23057.4" xlink:href="#P"><stop stop-color="#ff8a11"/><stop offset="1" stop-color="#ff471f"/></linearGradient><linearGradient id="H" x1="-2089.39" y1="7490.81" x2="20950.3" y2="8627.68" xlink:href="#P"><stop stop-color="#ff8a11"/><stop offset="1" stop-color="#ff471f"/></linearGradient><linearGradient id="I" x1="-2086.3" y1="7476.01" x2="20078.2" y2="8550.99" xlink:href="#P"><stop stop-color="#ff8a11"/><stop offset="1" stop-color="#ff471f"/></linearGradient><linearGradient id="J" x1="-2122.01" y1="7540.92" x2="19936.1" y2="8607.29" xlink:href="#P"><stop stop-color="#ff8a11"/><stop offset="1" stop-color="#ff471f"/></linearGradient><linearGradient id="K" x1="-1814.12" y1="7388.49" x2="18016" y2="8250.27" xlink:href="#P"><stop stop-color="#ff8a11"/><stop offset="1" stop-color="#ff471f"/></linearGradient><linearGradient id="L" x1="-379.005" y1="9694.03" x2="5648.73" y2="9750.78" xlink:href="#P"><stop stop-color="#ff8a11"/><stop offset="1" stop-color="#ff471f"/></linearGradient><linearGradient id="M" x1="-2272.84" y1="7805" x2="20828.7" y2="8949.03" xlink:href="#P"><stop stop-color="#ff8a11"/><stop offset="1" stop-color="#ff471f"/></linearGradient><linearGradient id="N" x1="-1938.96" y1="7211.88" x2="20225.5" y2="8288.31" xlink:href="#P"><stop stop-color="#ff8a11"/><stop offset="1" stop-color="#ff471f"/></linearGradient><clipPath id="O"><path fill="#fff" d="M0 0h407.63v229.97H0z"/></clipPath><linearGradient id="P" gradientUnits="userSpaceOnUse"/></defs></svg>