<svg width="859" height="303" viewBox="0 0 859 303" fill="none" xmlns="http://www.w3.org/2000/svg">
<path d="M503.816 25.2755L487.045 8.38772C481.767 3.11366 474.744 0.208137 467.239 0.208137C459.738 0.208137 452.707 3.11366 447.429 8.38772L256.114 199.711L64.5791 8.17542C59.3092 2.90136 52.2785 0 44.7775 0C37.2764 0 30.2415 2.90136 24.9675 8.17542L8.19207 24.9592C-2.73069 35.8736 -2.73069 53.6522 8.19207 64.5666L236.238 293.432C241.508 298.702 248.53 302.415 256.098 302.415H256.185C263.69 302.415 270.713 298.698 275.983 293.432L503.816 65.1869C509.094 59.917 511.992 52.6823 512 45.1812C512 37.676 509.094 30.5413 503.816 25.2755Z" fill="#9E163F"/>
</svg>
