<?xml version="1.0"?>
<svg xmlns="http://www.w3.org/2000/svg" xmlns:xlink="http://www.w3.org/1999/xlink" xmlns:svgjs="http://svgjs.com/svgjs" version="1.1" width="512" height="512" x="0" y="0" viewBox="0 0 64 64" style="enable-background:new 0 0 512 512" xml:space="preserve" class=""><g><g xmlns="http://www.w3.org/2000/svg" id="Perfume-Bottle-3" data-name="Perfume-Bottle"><path d="M50,24H37V20h1a1,1,0,0,0,1-1V15a1,1,0,0,0-1-1H37V12h4a1.006,1.006,0,0,0,.555-.168l3-2A1,1,0,0,0,45,9V5a1,1,0,0,0-.445-.832l-3-2A1.006,1.006,0,0,0,41,2H23a1.006,1.006,0,0,0-.555.168l-3,2A1,1,0,0,0,19,5V9a1,1,0,0,0,.445.832l3,2A1.006,1.006,0,0,0,23,12h4v2H26a1,1,0,0,0-1,1v4a1,1,0,0,0,1,1h1v4H14a3,3,0,0,0-3,3V59a3,3,0,0,0,3,3H50a3,3,0,0,0,3-3V27A3,3,0,0,0,50,24ZM21,8.465V5.535L23.3,4H40.7L43,5.535v2.93L40.7,10H23.3ZM29,12h6v2H29Zm-2,4H37v2H27ZM51,59a1,1,0,0,1-1,1H14a1,1,0,0,1-1-1V27a1,1,0,0,1,1-1H27a2,2,0,0,0,2-2V20h6v4a2,2,0,0,0,2,2H50a1,1,0,0,1,1,1Z" fill="#232F3E" data-original="#000000" style=""/><path d="M45,32H19a2,2,0,0,0-2,2V52a2,2,0,0,0,2,2H45a2,2,0,0,0,2-2V34A2,2,0,0,0,45,32ZM19,52V34H45V52Z" fill="#232F3E" data-original="#000000" style=""/></g></g></svg>
