<svg width="221" height="138" viewBox="0 0 221 138" fill="none" xmlns="http://www.w3.org/2000/svg">
<path d="M37.4497 112.769L21.1836 137.958L50.2692 121.932L37.4497 112.769Z" fill="#FF0000"/>
<path d="M50.3952 122.058L0.209961 97.0351L47.0327 94.6919L50.3952 122.058Z" fill="#FF3333"/>
<path d="M221 0L0 32.9727V96.9515H221V0Z" fill="#FF471F"/>
<path d="M76.1238 69.4394C76.2702 67.1396 74.9629 65.539 72.2018 64.6376L66.445 63.0621C59.7296 60.9314 56.2538 57.3559 56.0176 52.3357C55.8912 50.0088 56.4227 47.8774 57.6123 45.9413C58.8019 44.0052 60.5967 42.395 62.9967 41.1109C65.3945 39.8078 68.0518 39.0131 70.9685 38.7268C74.9937 38.3555 78.3735 39.1882 81.1079 41.2248C83.8402 43.2424 85.4043 46.1864 85.8003 50.0567L77.4626 50.9848C77.347 49.098 76.7644 47.6854 75.7145 46.7469C74.6838 45.8063 73.1954 45.4251 71.2494 45.6033C69.3415 45.7773 67.7343 46.3975 66.4278 47.464C65.1192 48.5115 64.4199 49.8366 64.3301 51.4393C64.2004 53.5452 65.7742 55.0298 69.0513 55.893L72.9802 56.8948L75.262 57.6482C81.1885 59.79 84.2518 63.3826 84.4519 68.426C84.5553 70.8897 84.0026 73.0907 82.794 75.029C81.6023 76.9461 79.8508 78.513 77.5397 79.7297C75.2476 80.9442 72.6516 81.6841 69.7517 81.9493C66.7946 82.2209 64.0985 81.8974 61.6631 80.9788C59.2278 80.0603 57.2902 78.597 55.8504 76.589C54.5038 74.7241 53.7248 72.5082 53.5137 69.9413L61.8833 69.0385C62.1212 73.5596 64.5954 75.5964 69.3059 75.1488C71.3427 74.922 72.9679 74.2902 74.1814 73.2533C75.3949 72.2164 76.0423 70.945 76.1238 69.4394ZM113.158 67.8787L98.6517 69.4933L95.3262 78.4981L86.1037 79.5247L103.67 35.6625L111.408 34.8011L123.966 75.3102L115.429 76.2605L113.158 67.8787ZM101.302 62.2042L111.325 61.0885L107.253 45.9418L101.302 62.2042ZM136.96 66.9273L154.607 64.963L154.177 71.9474L128.163 74.8429L130.739 32.6493L139.106 31.718L136.96 66.9273ZM184.6 50.3994L168.666 52.1729L167.97 63.4755L186.702 61.3905L186.272 68.3749L159.174 71.3912L161.75 29.1975L188.79 26.1875L188.339 33.2319L169.693 35.3075L169.058 45.3654L185.049 43.5855L184.6 50.3994Z" fill="white"/>
<path d="M176.852 90.6332H174.537L176.113 81.578L173.207 82.4525L173.569 80.4338L178.559 78.7176L178.864 78.7095L176.852 90.6332ZM186.292 90.6332H183.978L185.554 81.578L182.648 82.4525L183.009 80.4338L188 78.7176L188.304 78.7095L186.292 90.6332ZM191.842 88.1979C192.208 88.187 192.52 88.3017 192.778 88.541C193.041 88.7753 193.172 89.0724 193.172 89.4315C193.183 89.7913 193.063 90.0993 192.81 90.3554C192.559 90.6056 192.25 90.7311 191.883 90.7311C191.517 90.742 191.207 90.6332 190.955 90.4047C190.704 90.1754 190.573 89.8783 190.562 89.5135C190.551 89.1486 190.668 88.8406 190.915 88.5904C191.161 88.3393 191.47 88.2088 191.842 88.1979ZM200.56 90.6332H198.245L199.821 81.578L196.915 82.4525L197.277 80.4338L202.267 78.7176L202.572 78.7095L200.56 90.6332ZM210.001 90.6332H207.686L209.262 81.578L206.356 82.4525L206.717 80.4338L211.708 78.7176L212.012 78.7095L210.001 90.6332Z" fill="white"/>
</svg>
