<svg width="221" height="138" viewBox="0 0 221 138" fill="none" xmlns="http://www.w3.org/2000/svg">
<path d="M183.55 112.769L199.816 137.958L170.731 121.932L183.55 112.769Z" fill="#FF0000"/>
<path d="M170.605 122.058L220.79 97.0351L173.967 94.6919L170.605 122.058Z" fill="#FF3333"/>
<path d="M0 0L221 32.9727V96.9515H0V0Z" fill="#FF471F"/>
<path d="M45.2507 64.1646C45.7419 61.9132 44.6908 60.1339 42.097 58.8267L36.6432 56.4019C30.3255 53.2838 27.428 49.2255 27.9508 44.227C28.1765 41.9076 29.0231 39.8806 30.4908 38.1458C31.9585 36.411 33.9754 35.0897 36.5414 34.1818C39.1082 33.2548 41.8549 32.8696 44.7815 33.026C48.8167 33.2653 52.0324 34.5977 54.4288 37.023C56.8259 39.4293 57.9286 42.5753 57.737 46.461L49.3547 46.1224C49.5247 44.2398 49.1615 42.7555 48.265 41.6695C47.3877 40.5843 45.9737 39.9832 44.0231 39.8663C42.1108 39.7508 40.4285 40.1218 38.9763 40.9793C37.5247 41.8177 36.6338 43.0223 36.3035 44.5931C35.8581 46.6555 37.1902 48.3602 40.2999 49.7073L44.033 51.2896L46.1753 52.3782C51.7114 55.3884 54.1985 59.4015 53.6365 64.4175C53.3675 66.8687 52.4895 68.9613 51.0027 70.6954C49.5357 72.411 47.5682 73.6962 45.1001 74.5508C42.6512 75.4062 39.9733 75.7465 37.0666 75.5718C34.1024 75.3947 31.4857 74.6688 29.2166 73.3937C26.9475 72.1187 25.2524 70.3802 24.1316 68.1782C23.0813 66.1318 22.6451 63.8238 22.8231 61.2544L31.2331 61.6228C30.7873 66.1282 32.9264 68.5145 37.6505 68.7817C39.6982 68.8644 41.4 68.4846 42.7559 67.6424C44.1117 66.8002 44.9433 65.6408 45.2507 64.1646ZM82.0969 68.2013L67.5134 67.612L62.8692 76.013L53.5973 75.6385L77.5716 34.9234L85.351 35.2377L91.6626 77.1764L83.0795 76.8296L82.0969 68.2013ZM71.2318 60.8054L81.3082 61.2126L79.5647 45.6253L71.2318 60.8054ZM105.771 70.8468L123.512 71.5637L122.035 78.4035L95.8823 77.3468L104.786 36.0229L113.197 36.3627L105.771 70.8468ZM155.357 61.685L139.338 61.0377L136.947 72.1065L155.779 72.8674L154.302 79.7072L127.059 78.6066L135.962 37.2825L163.147 38.3808L161.64 45.2768L142.894 44.5195L140.751 54.367L156.828 55.0167L155.357 61.685Z" fill="white"/>
<path d="M174.645 86.9237H172.33L173.906 77.8685L171 78.743L171.361 76.7244L176.352 75.0081L176.657 75L174.645 86.9237ZM184.085 86.9237H181.771L183.347 77.8685L180.441 78.743L180.802 76.7244L185.793 75.0081L186.097 75L184.085 86.9237ZM189.635 84.4884C190.001 84.4776 190.313 84.5922 190.571 84.8315C190.834 85.0659 190.965 85.363 190.965 85.722C190.976 86.0818 190.856 86.3898 190.603 86.6459C190.352 86.8961 190.043 87.0216 189.676 87.0216C189.31 87.0325 189 86.9237 188.748 86.6953C188.497 86.466 188.366 86.1689 188.355 85.804C188.344 85.4391 188.461 85.1311 188.708 84.8809C188.954 84.6299 189.263 84.4993 189.635 84.4884ZM198.353 86.9237H196.038L197.614 77.8685L194.708 78.743L195.07 76.7244L200.06 75.0081L200.365 75L198.353 86.9237ZM207.794 86.9237H205.479L207.055 77.8685L204.149 78.743L204.51 76.7244L209.501 75.0081L209.805 75L207.794 86.9237Z" fill="white"/>
</svg>
