<svg id="afcda836-adc3-4311-9165-7d4f5bf6e1d6" data-name="Layer 1" xmlns="http://www.w3.org/2000/svg" viewBox="0 0 728.98602 381.43186"><defs><style>.a8548c1d-b95e-467a-9e3c-5432ce09a368{fill:#FFFFFF;}.a987c825-8d80-40b9-b53f-fce6f94a59ca,.b5a3a4a1-af04-4050-b097-f4ac54f22c2c{fill:#FFFFFF;}.b5a3a4a1-af04-4050-b097-f4ac54f22c2c{fill-rule:evenodd;}.e02705c4-eee6-44ea-9da9-cc7d7ae9e0a1{fill:none;}</style></defs><title>Supply Mart Logo</title><path class="a8548c1d-b95e-467a-9e3c-5432ce09a368" d="M14.03516,589.5918v-3.42188c0-1.95508-.37452-2.26953-3.67334-2.26953-3.29834,0-3.67334.31445-3.67334,2.26953v2.72266c0,1.11719.2998,1.502,2.249,2.06055,1.64941.48828,4.72314,1.11718,8.09619,2.09472,5.09815,1.46582,5.69776,2.19922,5.69776,5.27149v4.43359c0,5.09766-2.09913,5.83105-12.29444,5.83105-9.7456,0-12.06982-.66406-12.06982-5.83105v-5.48145H6.76367v5.48145c0,1.9209.44971,2.26953,3.59815,2.26953,3.22363,0,3.67334-.34863,3.67334-2.26953v-4.1543c0-1.46582-.14991-1.95508-2.02393-2.54883-2.02393-.66308-6.37207-1.64062-9.2207-2.51367-4.19824-1.292-4.72315-2.12988-4.72315-4.71289v-2.65332c0-5.13183,2.02393-5.86523,12.14453-5.86523s12.21973.7334,12.21973,5.86523v3.42188Z" transform="translate(59.43016 -227.15212)"/><path class="a8548c1d-b95e-467a-9e3c-5432ce09a368" d="M28.12646,602.75293V580.6543h8.6211v22.09863c0,1.9209.6001,2.23437,3.67334,2.23437,3.07373,0,3.67334-.31347,3.67334-2.23437V580.6543h8.39648v22.09863c0,5.13184-2.249,5.83105-12.14453,5.83105S28.12646,607.88477,28.12646,602.75293Z" transform="translate(59.43016 -227.15212)"/><path class="a8548c1d-b95e-467a-9e3c-5432ce09a368" d="M67.25732,597.7959v10.43848H58.63623V580.6543H70.93066c10.1958,0,12.36963.69726,12.36963,5.62011v5.90039c0,4.958-2.32373,5.6211-12.36963,5.6211Zm0-13.65137v10.4043h3.67334c3.07373,0,3.67383-.34961,3.67383-2.23438v-6.04c0-1.78027-.30029-2.12988-3.67383-2.12988Z" transform="translate(59.43016 -227.15212)"/><path class="a8548c1d-b95e-467a-9e3c-5432ce09a368" d="M96.86719,597.7959v10.43848h-8.6211V580.6543H100.541c10.19531,0,12.36914.69726,12.36914,5.62011v5.90039c0,4.958-2.32373,5.6211-12.36914,5.6211Zm0-13.65137v10.4043H100.541c3.07324,0,3.67334-.34961,3.67334-2.23438v-6.04c0-1.78027-.3003-2.12988-3.67334-2.12988Z" transform="translate(59.43016 -227.15212)"/><path class="a8548c1d-b95e-467a-9e3c-5432ce09a368" d="M135.32275,608.23438H117.85547V580.6543h8.62109v24.08886h8.84619Z" transform="translate(59.43016 -227.15212)"/><path class="a8548c1d-b95e-467a-9e3c-5432ce09a368" d="M159.08545,580.6543l-8.84619,17.83984v9.74024h-8.6211v-9.74024l-8.54589-17.83984h8.54589l4.273,12.46289h.3003L150.689,580.6543Z" transform="translate(59.43016 -227.15212)"/><path class="a8548c1d-b95e-467a-9e3c-5432ce09a368" d="M208.63477,580.6543v27.58008h-7.04688V588.75391h-.2998l-5.47266,19.48047h-7.72119l-5.47266-19.6211h-.2998v19.6211h-7.12207V580.6543h12.06982l4.49805,18.53808h.2998l4.57276-18.53808Z" transform="translate(59.43016 -227.15212)"/><path class="a8548c1d-b95e-467a-9e3c-5432ce09a368" d="M230.22266,608.23438v-6.14454h-7.27149v6.14454h-8.39648V586.09961c0-5.06152,2.249-5.79492,11.84472-5.79492,10.04541,0,12.44434.80273,12.44434,5.79492v22.13477Zm-7.27149-22.13477v12.709h7.27149v-12.709c0-1.88477-.59961-2.19922-3.67334-2.19922S222.95117,584.21484,222.95117,586.09961Z" transform="translate(59.43016 -227.15212)"/><path class="a8548c1d-b95e-467a-9e3c-5432ce09a368" d="M253.53467,608.23438h-8.6211V580.6543H257.208c10.1958,0,12.36963.76758,12.36963,5.62011v2.89747c0,2.89843-2.99854,3.49218-5.32276,3.77148v.13867c3.14893.34961,5.32276,1.11719,5.32276,4.15527v10.99708h-8.6958v-11.626c0-1.501-.4502-1.98926-3.44873-1.98926h-3.89844Zm0-16.793h3.89844c2.77392,0,3.44873-.45313,3.44873-1.78028v-3.38672c0-1.74511-.375-2.12988-3.67383-2.12988h-3.67334Z" transform="translate(59.43016 -227.15212)"/><path class="a8548c1d-b95e-467a-9e3c-5432ce09a368" d="M293.64014,584.00586h-6.44678v24.22852h-8.62109V584.00586H272.0498V580.6543h21.59034Z" transform="translate(59.43016 -227.15212)"/><path class="a8548c1d-b95e-467a-9e3c-5432ce09a368" d="M335.09375,596.74805v5.83008c0,4.92285-2.17383,5.65625-12.36914,5.65625H310.42969V580.6543h12.29492c10.19531,0,12.36914.69726,12.36914,5.62011V588.334c0,2.86329-3.29883,3.63086-5.32324,3.77149v.13867C332.91992,592.59375,335.09375,593.39648,335.09375,596.74805Zm-16.043-6.10938h3.89844c2.77344,0,3.44824-.4541,3.44824-1.78027v-2.584c0-1.71-.375-2.12988-3.67285-2.12988h-3.67383Zm0,14.13965h3.67383c3.14844,0,3.67285-.34961,3.67285-2.20019v-6.73731c0-1.53613-.45019-2.02539-3.44824-2.02539h-3.89844Z" transform="translate(59.43016 -227.15212)"/><path class="a8548c1d-b95e-467a-9e3c-5432ce09a368" d="M365.45313,602.57813c0,4.92285-2.17383,5.65625-12.36915,5.65625H340.78906V580.6543H353.084c10.19532,0,12.36915.69726,12.36915,5.62011Zm-8.69532-16.30372c0-1.81543-.52539-2.12988-3.67383-2.12988h-3.67382v20.63379H353.084c3.14844,0,3.67383-.34961,3.67383-2.20019Z" transform="translate(59.43016 -227.15212)"/><path class="a8548c1d-b95e-467a-9e3c-5432ce09a368" d="M378.7207,608.23438h-7.87109V603.626h7.87109Z" transform="translate(59.43016 -227.15212)"/><path class="a8548c1d-b95e-467a-9e3c-5432ce09a368" d="M400.01074,592.34961v-6.25c0-1.84961-.52441-2.19922-3.59863-2.19922-3.14844,0-3.67285.38477-3.67285,2.19922v16.65332c0,1.9209.52441,2.26953,3.67285,2.26953,3.07422,0,3.59863-.34863,3.59863-2.26953v-6.38867H408.332v6.38867c0,5.167-2.249,5.83105-11.91992,5.83105-10.19531,0-12.29395-.73339-12.29395-5.83105V586.09961c0-5.06152,2.47364-5.79492,12.29395-5.79492,9.6709,0,11.91992.69824,11.91992,5.79492v6.25Z" transform="translate(59.43016 -227.15212)"/><path class="a8548c1d-b95e-467a-9e3c-5432ce09a368" d="M438.31738,602.75293c0,5.13184-2.17383,5.83105-12.37011,5.83105-10.19532,0-12.29395-.69921-12.29395-5.83105V586.09961c0-5.09668,2.09863-5.79492,12.29395-5.79492,10.19628,0,12.37011.69824,12.37011,5.79492Zm-8.69629-16.65332c0-1.84961-.52441-2.19922-3.59863-2.19922-3.22363,0-3.74805.38477-3.74805,2.19922v16.65332c0,1.9209.52442,2.26953,3.59864,2.26953,3.29785,0,3.748-.41894,3.748-2.26953Z" transform="translate(59.43016 -227.15212)"/><path class="a8548c1d-b95e-467a-9e3c-5432ce09a368" d="M477.59668,580.6543v27.58008H470.5498V588.75391H470.25l-5.47266,19.48047h-7.7207l-5.47266-19.6211h-.2998v19.6211h-7.12207V580.6543h12.06934l4.498,18.53808h.29981l4.57324-18.53808Z" transform="translate(59.43016 -227.15212)"/><path class="b5a3a4a1-af04-4050-b097-f4ac54f22c2c" d="M516.77311,267.81061c1.914,1.01778,24.04966,3.33785,29.6214,3.804.463.14819,1.78651.166,2.249.31406l2.8058,1.10026c-24.04969,11.24917-10.34268,8.7455-42.32653-3.41047-4.90322-1.87306-8.45176-3.51492-13.1885,1.5542l14.49634,20.2384c-4.78817,1.81154-9.28369,1.18329-14.80436,3.97609a.8075.8075,0,0,1,.6784.11519l4.37617,1.29917c2.00066.13347,3.57149.33206,5.35676.49829,6.3143,1.00646,2.08454,3.60472,9.89515,2.86075,8.45512-.84,16.59883-2.28686,25.42079-3.618,19.39776-2.70894,32.34242-8.79954,50.18191-14.53945,3.22375,3.86844,3.56719,4.68759,8.26868,3.76036,3.41065-.7322,6.72458-2.10374,8.436-3.88537l-2.65288-5.91434c-.03209-.21271-.27917-.39323-.31119-.60545,5.09972-1.20538.517-.94925,4.75368,2.33074,2.47278,1.80368,2.65584,1.55825,5.851.85856,14.901-3.337,8.66353-6.74993,5.70874-11.748,13.70054-8.38071,37.94246-18.35255,45.63086-28.65781,9.85188-13.46169-14.37525-10.67618-18.80629-10.87879-10.18778-.42269-21.13174,5.80158-28.27639,9.49208-9.38419,4.89942-41.50745,23.89955-47.12337,26.05254-6.9084,2.34928-33.43487,1.56172-42.94262,1.25493-4.18545-.02186-10.76833.10048-13.29863,3.74813Z" transform="translate(59.43016 -227.15212)"/><path class="e02705c4-eee6-44ea-9da9-cc7d7ae9e0a1" d="M269.88754,404.00831c1.563-3.32646,3.02847-3.54635,5.89016-1.17262a66.25805,66.25805,0,0,1,6.31359,5.96417q5.91719-2.2308,11.81515-4.52612a77.1668,77.1668,0,0,0-22.737-18.70934c-3.354-1.86786-4.36859-1.70577-5.96537,1.78242-4.117,8.99336-8.606,17.874-11.88376,27.17413a50.2308,50.2308,0,0,0-1.49585,5.193q6.81531-2.34055,13.64228-4.79407A110.33874,110.33874,0,0,1,269.88754,404.00831Z" transform="translate(59.43016 -227.15212)"/><path class="e02705c4-eee6-44ea-9da9-cc7d7ae9e0a1" d="M260.02352,445.27939c.01646-1.27307.09132-2.53882.16041-3.80517q-6.24954,2.368-12.42471,4.617c-.14371,1.27428-.292,2.56874-.45468,3.88868H236.81149q-15.89549,5.54049-31.15652,10.1828c.53254.88593,1.07012,1.767,1.5552,2.69731,1.18813,2.27868,2.36027,4.60242,3.43809,6.96461,16.36193-5.06864,32.88091-10.8134,49.31458-17.158C259.988,450.20431,259.99156,447.74167,260.02352,445.27939Z" transform="translate(59.43016 -227.15212)"/><path class="e02705c4-eee6-44ea-9da9-cc7d7ae9e0a1" d="M179.17259,437.55442a27.31853,27.31853,0,0,1,3.92929,1.42087c.47078.27012.91909.56427,1.38266.84219,13.5798-3.36,27.496-7.28843,41.57845-11.66856-2.84751-15.51373-8.11537-30.434-17.679-44.39122-4.23341,2.53245-8.39029,4.62693-12.11471,7.31931-12.1409,8.77707-21.11142,20.206-25.984,34.35706a69.08823,69.08823,0,0,0-3.7905,18.53259q6.01576-1.284,12.13981-2.73468C178.80395,440.08856,179.006,438.886,179.17259,437.55442Z" transform="translate(59.43016 -227.15212)"/><path class="e02705c4-eee6-44ea-9da9-cc7d7ae9e0a1" d="M342.71972,415.00723q14.28163-7.592,27.8833-15.687l4.72173,7.05953c-9.359,6.987-19.20824,13.73156-29.411,20.23427.24992,1.12408.51127,2.24276.73068,3.3815,1.45451.12832,2.75018.34112,4.046.34233q3.16965.00288,6.33931,0c25.86548-15.35682,50.78556-31.32031,74.36587-47.11726a26.80912,26.80912,0,0,0-16.18566-5.74067c-5.567.09216-11.136.11319-16.70475.12965-18.69636,10.23687-38.42273,20.29747-58.60629,29.85521C340.92192,409.94437,341.8702,412.45483,342.71972,415.00723Z" transform="translate(59.43016 -227.15212)"/><path class="e02705c4-eee6-44ea-9da9-cc7d7ae9e0a1" d="M298.02173,516.61332c.0012,1.52733.16342,3.05442.276,5.023h11.29462c.16185-1.55245.412-2.839.41323-4.12575.01153-12.435.05791-24.87058.06776-37.30586q-6.01054,3.45009-12.06267,6.82438Q298.01392,501.82113,298.02173,516.61332Z" transform="translate(59.43016 -227.15212)"/><path class="e02705c4-eee6-44ea-9da9-cc7d7ae9e0a1" d="M297.99818,453.90614q.00216,4.66147.00361,9.323,6.03037-3.12659,12.01341-6.33414c-.01718-3.07941-.0286-6.15883-.05768-9.23812Q304.0297,450.84109,297.99818,453.90614Z" transform="translate(59.43016 -227.15212)"/><path class="e02705c4-eee6-44ea-9da9-cc7d7ae9e0a1" d="M344.70221,382.35185c-4.19917,1.59534-8.61089,3.07052-12.28509,6.20485q9.95433-4.24514,19.69861-8.5799A75.32143,75.32143,0,0,0,344.70221,382.35185Z" transform="translate(59.43016 -227.15212)"/><path class="e02705c4-eee6-44ea-9da9-cc7d7ae9e0a1" d="M259.8064,471.737c-14.44349,6.1664-29.103,11.80037-43.81663,16.83824a48.05588,48.05588,0,0,1,.14383,12.04886q21.95451-8.5683,43.65429-18.63292C259.79438,478.57317,259.79174,475.155,259.8064,471.737Z" transform="translate(59.43016 -227.15212)"/><path class="e02705c4-eee6-44ea-9da9-cc7d7ae9e0a1" d="M.937,521.94065q60.34828-.00794,120.69645-.00385h5.38669V511.40807a383.35679,383.35679,0,0,1-62.31281,5.546c-48.49294,0-81.59507-11.92353-95.72759-34.48058-5.46287-8.71891-7.92744-18.74587-7.42806-29.99135-6.776,19.98518-5.94038,36.72237,2.57271,49.83763,7.1553,11.02367,18.72917,18.44752,31.59438,23.446C-4.19138,522.1144-3.54962,521.94113.937,521.94065Z" transform="translate(59.43016 -227.15212)"/><path class="e02705c4-eee6-44ea-9da9-cc7d7ae9e0a1" d="M166.24225,513.52141c.00024.87391.10875,1.74794.21677,3.37392a23.50919,23.50919,0,0,0,3.633-2.60515,29.95517,29.95517,0,0,0,7.4277-13.943q-5.66431,1.52661-11.303,2.92248Q166.23234,508.39558,166.24225,513.52141Z" transform="translate(59.43016 -227.15212)"/><path class="e02705c4-eee6-44ea-9da9-cc7d7ae9e0a1" d="M416.853,430.33821a23.46669,23.46669,0,0,0,3.98553-.308c14.83256-2.5804,24.04388-18.69733,20.80886-32.08607a21.62836,21.62836,0,0,0-1.04465-3.12327c-16.20237,11.80794-33.15079,23.73208-50.67562,35.51719Q403.3901,430.33574,416.853,430.33821Z" transform="translate(59.43016 -227.15212)"/><path class="e02705c4-eee6-44ea-9da9-cc7d7ae9e0a1" d="M294.09677,427.92339a66.12827,66.12827,0,0,1,2.88079,9.36681q5.56662-2.48277,11.08026-5.05362a66.96677,66.96677,0,0,0-2.98052-8.99335c-.419.18132-.83714.36624-1.25625.547Q298.93931,425.89555,294.09677,427.92339Z" transform="translate(59.43016 -227.15212)"/><path class="e02705c4-eee6-44ea-9da9-cc7d7ae9e0a1" d="M178.25422,467.91322q-6.10968,1.5895-12.08382,3.01837c-.008,3.69955-.02043,7.399-.01322,11.09877q6.00388-1.42189,12.085-2.9971Q178.24437,473.4733,178.25422,467.91322Z" transform="translate(59.43016 -227.15212)"/><path class="a8548c1d-b95e-467a-9e3c-5432ce09a368" d="M152.62653,559.99882a59.42079,59.42079,0,0,0,15.79443-2.1554c15.1535-4.28244,27.09614-12.7179,35.77817-25.07244-27.76554,11.41815-55.52232,20.762-82.76553,27.27109C131.83124,560.02609,142.22889,560.031,152.62653,559.99882Z" transform="translate(59.43016 -227.15212)"/><path class="a8548c1d-b95e-467a-9e3c-5432ce09a368" d="M415.20993,377.47992a26.80912,26.80912,0,0,1,16.18566,5.74067Q448.158,371.9911,463.97,360.96178c-1.6422-1.81031-3.37944-3.5824-5.26028-5.29525a64.54869,64.54869,0,0,0-10.05543-7.52394c-15.44285,9.79192-32.32579,19.70809-50.14909,29.467C404.07391,377.59311,409.64288,377.57208,415.20993,377.47992Z" transform="translate(59.43016 -227.15212)"/><path class="a8548c1d-b95e-467a-9e3c-5432ce09a368" d="M308.05782,432.23658c11.77526-5.47776,23.36716-11.22529,34.6619-17.22935-.84952-2.5524-1.7978-5.06286-2.82083-7.54245-11.49613,5.44377-23.13813,10.72255-34.82159,15.77845A66.96677,66.96677,0,0,1,308.05782,432.23658Z" transform="translate(59.43016 -227.15212)"/><path class="a8548c1d-b95e-467a-9e3c-5432ce09a368" d="M247.30454,449.97986c.1627-1.31994.311-2.6144.45468-3.88868q-5.51092,2.00081-10.94773,3.88868Z" transform="translate(59.43016 -227.15212)"/><path class="a8548c1d-b95e-467a-9e3c-5432ce09a368" d="M166.1704,470.93159c-13.64516,3.25569-26.72233,5.85519-39.15029,7.78445v11.14623c12.65746-2.04293,25.74785-4.66118,39.13707-7.83191C166.15,478.33057,166.16235,474.63114,166.1704,470.93159Z" transform="translate(59.43016 -227.15212)"/><path class="a8548c1d-b95e-467a-9e3c-5432ce09a368" d="M294.09677,427.92339q-17.20509,7.22553-33.91284,13.55083c-.06909,1.26635-.14395,2.5321-.16041,3.80517-.032,2.46228-.03556,4.92492-.06068,7.3872,12.42976-4.79887,24.80377-9.93023,37.01472-15.37639A66.12827,66.12827,0,0,0,294.09677,427.92339Z" transform="translate(59.43016 -227.15212)"/><path class="a8548c1d-b95e-467a-9e3c-5432ce09a368" d="M259.8064,471.737c-.01466,3.418-.012,6.83616-.01851,10.25418q19.27528-8.91273,38.2139-18.76209-.00144-4.66149-.00361-9.323C285.52853,460.24929,272.76029,466.20661,259.8064,471.737Z" transform="translate(59.43016 -227.15212)"/><path class="a8548c1d-b95e-467a-9e3c-5432ce09a368" d="M462.23334,449.74218a3.98253,3.98253,0,0,1,.35819-.91788,13.52757,13.52757,0,0,1,1.08238-1.26779,61.9582,61.9582,0,0,0,15.9367-32.17138c2.65081-16.32673-.015-31.056-7.73482-43.87419q-15.08532,11.49769-31.27308,23.31a21.62836,21.62836,0,0,1,1.04465,3.12327c3.235,13.38874-5.9763,29.50567-20.80886,32.08607a23.46669,23.46669,0,0,1-3.98553.308q-13.463.01135-26.92588-.00012c-25.57854,17.201-52.37405,34.09379-79.85374,49.86659-.00985,12.43528-.05623,24.87081-.06776,37.30586-.00121,1.28677-.25138,2.5733-.41323,4.12575H298.29774c-.11259-1.96855-.27481-3.49564-.276-5.023q-.01118-14.79207-.01105-29.58426-18.9541,10.56964-38.229,20.28726c.02836,15.76331.08291,31.52709.08411,47.29.00049,5.3343.14479,5.48173,5.40207,5.48282q37.94751.00756,75.895.003c7.20673.00024,7.06434.00192,7.04692-7.05052q-.0977-39.45177-.013-78.904c.00541-4.37351.72467-5.00663,5.07728-5.00879q32.09646-.01567,64.19305.01874a19.97482,19.97482,0,0,1,4.95484.55562c12.662,3.29726,21.47923,16.10852,19.897,28.78772a27.20068,27.20068,0,0,1-26.68412,23.44178q-25.07532.03063-50.15077.01033c-4.87553.00264-5.28239.40806-5.29236,5.377q-.02741,13.67964-.00084,27.35941c.00552,4.97034.42223,5.40267,5.26737,5.40543,16.0482.00925,32.09772-.118,48.14448.04037A65.72114,65.72114,0,0,0,455.5159,546.276c15.23269-11.69007,23.18-27.42814,24.89-46.18495a60.309,60.309,0,0,0-10.644-40.20756C467.403,456.41493,464.76471,453.13641,462.23334,449.74218Z" transform="translate(59.43016 -227.15212)"/><path class="a8548c1d-b95e-467a-9e3c-5432ce09a368" d="M275.7777,402.83569c-2.86169-2.37373-4.32714-2.15384-5.89016,1.17262a110.33874,110.33874,0,0,0-4.42085,10.91156q8.31757-2.98635,16.6246-6.12A66.25805,66.25805,0,0,0,275.7777,402.83569Z" transform="translate(59.43016 -227.15212)"/><path class="a8548c1d-b95e-467a-9e3c-5432ce09a368" d="M207.21017,462.86c-.48508-.93027-1.02266-1.81138-1.5552-2.69731q-14.00335,4.261-27.40075,7.75056-.00144,5.56-.012,11.12c10.67821-2.74982,21.50482-5.83176,32.406-9.20868C209.57044,467.46239,208.3983,465.13865,207.21017,462.86Z" transform="translate(59.43016 -227.15212)"/><path class="a8548c1d-b95e-467a-9e3c-5432ce09a368" d="M183.10188,438.97529a27.31853,27.31853,0,0,0-3.92929-1.42087c-.16654,1.3316-.36864,2.53414-.538,3.67756q2.915-.69048,5.8499-1.4145C184.021,439.53956,183.57266,439.24541,183.10188,438.97529Z" transform="translate(59.43016 -227.15212)"/><path class="a8548c1d-b95e-467a-9e3c-5432ce09a368" d="M78.72351,534.93359c45.26237-3.86249,91.65783-16.45362,137.41009-34.30948a48.05588,48.05588,0,0,0-.14383-12.04886c-12.828,4.39226-25.68585,8.326-38.47007,11.7719a29.95517,29.95517,0,0,1-7.4277,13.943,23.50919,23.50919,0,0,1-3.633,2.60515c-.108-1.626-.21653-2.5-.21677-3.37392q-.0018-5.12577-.02559-10.25178c-13.23446,3.27612-26.339,6.003-39.19655,8.13844V521.9368h-5.38669q-60.34828.00054-120.69645.00385c-4.48659.00048-5.12835.17375-5.21823,3.82511,22.39676,8.70173,48.72,10.02912,62.549,10.02912C65.07739,535.79488,71.96,535.50458,78.72351,534.93359Z" transform="translate(59.43016 -227.15212)"/><path class="a8548c1d-b95e-467a-9e3c-5432ce09a368" d="M310.0152,456.895c15.94679-8.52919,31.647-17.43315,47.01452-26.55711q-3.16967-.00236-6.33931,0c-1.29578-.00121-2.59145-.214-4.046-.34233-.21941-1.13874-.48076-2.25742-.73068-3.3815-11.54852,7.36041-23.57179,14.3899-35.95625,21.04282C309.9866,450.73613,309.998,453.81555,310.0152,456.895Z" transform="translate(59.43016 -227.15212)"/><path class="a8548c1d-b95e-467a-9e3c-5432ce09a368" d="M352.11573,379.9768c28.92182-12.86245,56.19748-26.14821,80.11676-38.68948a64.76391,64.76391,0,0,0-16.52883-1.92337c-7.13187.07258-14.26926-.14515-21.39668.0465-13.56117.36456-27.14745-.98409-40.68891,1.23379-16.52151,2.706-31.77511,8.34882-45.49308,18.01423-1.24376.87631-2.57631,1.62658-3.80961,2.39907-2.64661-1.63391-5.05362-3.02149-7.35969-4.56036-11.55068-7.7073-24.36723-12.16325-37.803-15.27558-4.93983-1.14439-8.0208.43641-10.8027,4.283-3.16809,4.38061-6.70242,8.49639-10.25238,12.94644-3.99826-5.00422-7.90941-9.68342-11.56281-14.55595-2.07622-2.76881-4.50233-3.78871-7.80127-2.89654-5.99469,1.62142-12.12672,2.85039-17.96545,4.91159a109.94122,109.94122,0,0,0-47.20448,32.70716,101.76845,101.76845,0,0,0-16.561,26.95015A155.36221,155.36221,0,0,0,130.264,426.8082c-.67733,2.60491-1.53442,3.57038-4.09895,3.56521-22.6235-.04482-45.2482.09829-67.87037-.08243-12.63451-.10093-24.01024-12.04309-24.49448-24.70331a26.95448,26.95448,0,0,1,27.50432-28.064c7.91241.041,15.82531.0089,23.738.00914,16.9399.00048,33.88015.05154,50.819-.07883a7.69941,7.69941,0,0,0,4.95051-1.82616c3.06356-3.0418,5.63662-6.57,8.53339-9.789a107.1801,107.1801,0,0,1,25.05346-20.34566c2.50674-1.49381,4.96962-3.061,7.45269-4.59449q-.12834-.57117-.25678-1.14222c-1.56374-.12773-3.12748-.36636-4.69134-.36721q-58.50932-.02847-117.01877-.02535a62.72646,62.72646,0,0,0-37.13187,12.09176C11.32164,359.56878,3.62623,370.511-1.02149,383.69786a62.09344,62.09344,0,0,0-2.26943,8.26724c10.11384-15.31524,30.242-25.60036,40.51515-28.33924h0c-21.62174,15.39177-28.998,41.66574-16.32275,60.322,13.00688,18.95614,38.343,28.57456,75.293,28.57456,21.08283,0,44.93122-3.14057,70.30033-8.55574a69.08823,69.08823,0,0,1,3.7905-18.53259c4.87254-14.151,13.84306-25.58,25.984-34.35706,3.72442-2.69238,7.8813-4.78686,12.11471-7.31931,9.56362,13.95721,14.83148,28.87749,17.679,44.39122q12.81072-3.98449,25.76142-8.435a50.2308,50.2308,0,0,1,1.49585-5.193c3.27779-9.30012,7.76678-18.18077,11.88376-27.17413,1.59678-3.48819,2.6114-3.65028,5.96537-1.78242a77.1668,77.1668,0,0,1,22.737,18.70934c12.979-5.05133,25.85791-10.3211,38.51068-15.717" transform="translate(59.43016 -227.15212)"/><path class="a987c825-8d80-40b9-b53f-fce6f94a59ca" d="M1.17128,560.08809q.65083,0,1.30179.00025-3.358-.91724-6.598-1.97829C-3.756,560.00386-2.5827,560.08773,1.17128,560.08809Z" transform="translate(59.43016 -227.15212)"/><path class="a987c825-8d80-40b9-b53f-fce6f94a59ca" d="M2.47307,560.08834c18.05328,4.93177,38.563,6.74471,59.42289,5.18975a347.14223,347.14223,0,0,0,39.25783-5.208Q51.8135,560.10865,2.47307,560.08834Z" transform="translate(59.43016 -227.15212)"/><path class="a987c825-8d80-40b9-b53f-fce6f94a59ca" d="M310.04524,461.70525q-6.00316,3.20336-12.04177,6.3214.0018,7.09846.00541,14.19692,6.04821-3.39026,12.06087-6.8567Q310.06885,468.53589,310.04524,461.70525Z" transform="translate(59.43016 -227.15212)"/><path class="a987c825-8d80-40b9-b53f-fce6f94a59ca" d="M-4.29688,530.23276c-34.69771-12.98861-56.08081-40.28326-33.88916-90.068-42.88625,60.601-15.38986,101.74835,34.06111,117.94531a20.2083,20.2083,0,0,1-.17207-3.43989Q-4.30512,542.45152-4.29688,530.23276Z" transform="translate(59.43016 -227.15212)"/><path class="a987c825-8d80-40b9-b53f-fce6f94a59ca" d="M382.36206,430.338c19.443-12.96435,38.27385-26.17874,56.27366-39.31371a28.74371,28.74371,0,0,0-4.00091-4.98332c-22.37416,15.00271-45.59893,29.94365-69.44455,44.297Q373.77622,430.34229,382.36206,430.338Z" transform="translate(59.43016 -227.15212)"/><path class="a987c825-8d80-40b9-b53f-fce6f94a59ca" d="M538.13628,313.1398c-22.21989,16.144-46.16656,33.43472-71.44483,51.00232,1.00572,1.2476,1.968,2.51227,2.86577,3.80193C494.79055,348.69543,517.9014,330.05854,538.13628,313.1398Z" transform="translate(59.43016 -227.15212)"/><path class="a987c825-8d80-40b9-b53f-fce6f94a59ca" d="M259.78224,486.72626c-14.76359,6.79795-29.62354,13.12848-44.53517,18.88526-1.40825,6.5944-2.95144,13.06479-6.0949,19.05059-.34906.66471-.71867,1.30528-1.08263,1.95233,17.26685-7.26464,34.5397-15.32437,51.70237-23.99763C259.7647,497.31976,259.7772,492.02307,259.78224,486.72626Z" transform="translate(59.43016 -227.15212)"/><path class="a987c825-8d80-40b9-b53f-fce6f94a59ca" d="M438.63572,391.02426q15.92108-11.61809,30.9215-23.08021c-.89782-1.28966-1.86-2.55433-2.86577-3.80193q-15.69795,10.90959-32.05664,21.89882A28.74371,28.74371,0,0,1,438.63572,391.02426Z" transform="translate(59.43016 -227.15212)"/><path class="a987c825-8d80-40b9-b53f-fce6f94a59ca" d="M310.04524,461.70525q.02649,6.83081.02451,13.66162c24.7241-14.264,48.94822-29.46326,72.29231-45.0289q-8.586-.00018-17.1718,0C347.12856,441.20987,328.71481,451.74294,310.04524,461.70525Z" transform="translate(59.43016 -227.15212)"/><path class="a987c825-8d80-40b9-b53f-fce6f94a59ca" d="M215.24707,505.61152c-45.36907,17.515-91.20268,29.72183-136.16489,33.55836-27.27746,2.30632-58.69557.30268-83.37906-8.93712q-.00794,12.21864-.00012,24.4374a20.2083,20.2083,0,0,0,.17207,3.43989q3.2385,1.0607,6.598,1.97829,49.34048.0054,98.68072-.01827c34.87386-6.58563,70.877-18.29312,106.91575-33.45563.364-.647.73357-1.28762,1.08263-1.95233C212.29563,518.67631,213.83882,512.20592,215.24707,505.61152Z" transform="translate(59.43016 -227.15212)"/><path class="a987c825-8d80-40b9-b53f-fce6f94a59ca" d="M259.78224,486.72626c-.005,5.29681-.01754,10.5935-.01033,15.89055q19.23834-9.72235,38.237-20.39324-.00163-7.09845-.00541-14.19692Q279.03422,477.835,259.78224,486.72626Z" transform="translate(59.43016 -227.15212)"/><path class="a987c825-8d80-40b9-b53f-fce6f94a59ca" d="M494.217,310.84c-14.64535,9.32151-33.88147,20.39805-56.20793,32.21248a59.60244,59.60244,0,0,1,6.39577,2.73672A539.67408,539.67408,0,0,0,494.217,310.84Z" transform="translate(59.43016 -227.15212)"/><path class="a987c825-8d80-40b9-b53f-fce6f94a59ca" d="M122.52151,469.13967c-21.17475-.02571-42.35815.344-63.52124-.15248A62.84925,62.84925,0,0,1,23.191,456.95684C7.75823,445.87429-1.104,430.899-3.86095,412.326a58.6983,58.6983,0,0,1-.60692-9.90007c-7.43021,14.76287-9.83218,31.833.24609,46.98376,24.425,28.92939,72.96639,34.13729,131.24189,25.02822v-4.913C125.51189,469.39,124.01688,469.14148,122.52151,469.13967Z" transform="translate(59.43016 -227.15212)"/><path class="a987c825-8d80-40b9-b53f-fce6f94a59ca" d="M203.22308,456.47585q12.56866-3.80951,25.30159-8.14432c-.3755-5.36-.92775-10.67269-1.741-15.92-12.63619,3.918-25.14561,7.47673-37.40835,10.58786A58.80266,58.80266,0,0,1,203.22308,456.47585Z" transform="translate(59.43016 -227.15212)"/><path class="a987c825-8d80-40b9-b53f-fce6f94a59ca" d="M248.3069,441.35262q6.12843-2.24178,12.25781-4.572a97.17679,97.17679,0,0,1,3.27636-16.72518q-6.50422,2.31262-13.00136,4.53237c-.60463,3.46968-1.06556,6.98623-1.65109,10.44559C248.8362,437.11561,248.56272,439.21765,248.3069,441.35262Z" transform="translate(59.43016 -227.15212)"/><path class="a987c825-8d80-40b9-b53f-fce6f94a59ca" d="M338.2168,403.5594c17.74447-8.40278,34.98236-17.12241,51.37878-25.94611-5.719-.01994-11.43822-.04974-17.1557-.13181-1.53779-.02211-3.06331.018-4.58331.08675-11.4214,5.23061-23.15412,10.4224-35.09483,15.50269A118.15117,118.15117,0,0,1,338.2168,403.5594Z" transform="translate(59.43016 -227.15212)"/><path class="a987c825-8d80-40b9-b53f-fce6f94a59ca" d="M178.29411,445.71016c-4.00739.93807-7.972,1.80742-11.91223,2.63879q-.1669,9.11856-.20115,18.23989,6.0019-1.44569,12.0813-3.041Q178.26744,454.62884,178.29411,445.71016Z" transform="translate(59.43016 -227.15212)"/><path class="a987c825-8d80-40b9-b53f-fce6f94a59ca" d="M303.356,419.34734a83.17926,83.17926,0,0,0-4.19484-7.69913c-.81034-1.31646-1.66371-2.58508-2.54363-3.824q-5.76813,2.25225-11.56125,4.44045a60.02165,60.02165,0,0,1,7.34647,11.75507Q297.89551,421.71374,303.356,419.34734Z" transform="translate(59.43016 -227.15212)"/><path class="a987c825-8d80-40b9-b53f-fce6f94a59ca" d="M248.3069,441.35262c.25582-2.135.5293-4.237.88172-6.31923.58553-3.45936,1.04646-6.97591,1.65109-10.44559q-12.07372,4.11084-24.056,7.82373c.81323,5.24731,1.36548,10.56,1.741,15.92Q238.39446,444.97984,248.3069,441.35262Z" transform="translate(59.43016 -227.15212)"/><path class="a987c825-8d80-40b9-b53f-fce6f94a59ca" d="M17.38373,426.3367C4.37,407.18073,7.88283,383.79026,32.72228,366.107c-10.49485,2.7974-27.83283,17.72729-37.19015,36.319a58.6983,58.6983,0,0,0,.60692,9.90007C-1.104,430.899,7.75823,445.87429,23.191,456.95684a62.84925,62.84925,0,0,0,35.80929,12.03035c21.16309.4965,42.34649.12677,63.52124.15248,1.49537.00181,2.99038.25029,4.4986.38523v4.913c12.64641-1.97672,25.74244-4.6172,39.16062-7.84909q.0411-9.12127.20115-18.23989C98.34329,462.70581,40.97474,460.71671,17.38373,426.3367Z" transform="translate(59.43016 -227.15212)"/><path class="a987c825-8d80-40b9-b53f-fce6f94a59ca" d="M389.59558,377.61329c19.67313-10.58713,38.13242-21.3193,54.80929-31.82412a59.60244,59.60244,0,0,0-6.39577-2.73672c-21.02948,11.128-44.80746,22.90875-70.15253,34.51578,1.52-.06873,3.04552-.10886,4.58331-.08675C378.15736,377.56355,383.87653,377.59335,389.59558,377.61329Z" transform="translate(59.43016 -227.15212)"/><path class="a987c825-8d80-40b9-b53f-fce6f94a59ca" d="M292.40278,424.01969a60.02165,60.02165,0,0,0-7.34647-11.75507q-10.5902,4.00938-21.21524,7.79081a97.17679,97.17679,0,0,0-3.27636,16.72518Q276.53428,430.69111,292.40278,424.01969Z" transform="translate(59.43016 -227.15212)"/><path class="a987c825-8d80-40b9-b53f-fce6f94a59ca" d="M189.37534,442.99939q-5.57455,1.41414-11.08123,2.71077-.03874,8.919-.03208,17.83771,12.34932-3.243,24.96105-7.072A58.80266,58.80266,0,0,0,189.37534,442.99939Z" transform="translate(59.43016 -227.15212)"/><path class="a987c825-8d80-40b9-b53f-fce6f94a59ca" d="M303.356,419.34734c11.77118-5.09338,23.422-10.37109,34.86077-15.78794a118.15117,118.15117,0,0,0-5.45506-10.48848c-11.8834,5.05589-23.96555,9.99812-36.14418,14.75325.87992,1.239,1.73329,2.50758,2.54363,3.824A83.17926,83.17926,0,0,1,303.356,419.34734Z" transform="translate(59.43016 -227.15212)"/><path class="a987c825-8d80-40b9-b53f-fce6f94a59ca" d="M-23.604,415.75641c-40.71727,83.98935,41.00349,109.74368,150.62412,91.282V494.2341C29.4565,509.69906-42.92328,490.53563-23.604,415.75641Z" transform="translate(59.43016 -227.15212)"/><path class="a987c825-8d80-40b9-b53f-fce6f94a59ca" d="M372.78065,402.973c-9.3435,5.57065-18.95928,10.9577-28.76142,16.16536.3046,1.04381.57232,2.10445.8488,3.16088Q359.24051,413.05381,372.78065,402.973Z" transform="translate(59.43016 -227.15212)"/><path class="a987c825-8d80-40b9-b53f-fce6f94a59ca" d="M178.14392,495.72947c.033-.56943.08219-1.13273.08387-1.71394.01021-3.48879.007-6.97758.01009-10.46637q-6.06894,1.54734-12.0676,2.94772.018,6.17077.03532,12.34168Q172.14587,497.36171,178.14392,495.72947Z" transform="translate(59.43016 -227.15212)"/><path class="a987c825-8d80-40b9-b53f-fce6f94a59ca" d="M212.37505,473.88424a51.13854,51.13854,0,0,1,2.14446,6.76694c.2885,1.22153.54432,2.45039.78223,3.68261,14.85287-5.07608,29.76269-10.798,44.54191-17.13948.01814-3.27358.05262-6.54693.08062-9.82028C244.0682,463.46965,228.14905,468.98791,212.37505,473.88424Z" transform="translate(59.43016 -227.15212)"/><path class="a987c825-8d80-40b9-b53f-fce6f94a59ca" d="M297.9953,446.06775q.00108,1.59474.0012,3.18936,5.92638-3.04277,11.77994-6.22215a60.86351,60.86351,0,0,0-.79244-6.47352q-5.5567,2.584-11.15656,5.087A34.86029,34.86029,0,0,1,297.9953,446.06775Z" transform="translate(59.43016 -227.15212)"/><path class="a987c825-8d80-40b9-b53f-fce6f94a59ca" d="M166.17028,486.49688c-13.37889,3.1324-26.47589,5.72818-39.15017,7.73722v12.80429c12.73556-2.14482,25.84506-4.88322,39.18549-8.19983Q166.18362,492.66761,166.17028,486.49688Z" transform="translate(59.43016 -227.15212)"/><path class="a987c825-8d80-40b9-b53f-fce6f94a59ca" d="M344.868,422.29927c-.27648-1.05643-.5442-2.11707-.8488-3.16088-11.44206,6.07892-23.15027,11.89613-35.03523,17.423a60.86351,60.86351,0,0,1,.79244,6.47352C321.75946,436.53308,333.49362,429.61618,344.868,422.29927Z" transform="translate(59.43016 -227.15212)"/><path class="a987c825-8d80-40b9-b53f-fce6f94a59ca" d="M214.51951,480.65118a51.13854,51.13854,0,0,0-2.14446-6.76694c-11.48688,3.56557-22.89241,6.798-34.13717,9.66492-.00312,3.48879.00012,6.97758-.01009,10.46637-.00168.58121-.05083,1.14451-.08387,1.71394,12.27067-3.33211,24.6931-7.13583,37.15782-11.39568C215.06383,483.10157,214.808,481.87271,214.51951,480.65118Z" transform="translate(59.43016 -227.15212)"/><path class="a987c825-8d80-40b9-b53f-fce6f94a59ca" d="M297.9953,446.06775a34.86029,34.86029,0,0,0-.16786-4.4193c-12.518,5.58075-25.18707,10.83719-37.90317,15.72558-.028,3.27335-.06248,6.5467-.08062,9.82028,12.85908-5.51754,25.61831-11.50141,38.15285-17.9372Q297.9956,447.66237,297.9953,446.06775Z" transform="translate(59.43016 -227.15212)"/></svg>