<svg width="211" height="31" viewBox="0 0 211 31" fill="none" xmlns="http://www.w3.org/2000/svg">
<path d="M14.5455 6.54545C14.4091 5.39394 13.8561 4.5 12.8864 3.86364C11.9167 3.22727 10.7273 2.90909 9.31818 2.90909C8.28788 2.90909 7.38636 3.07576 6.61364 3.40909C5.84849 3.74242 5.25 4.20076 4.81818 4.78409C4.39394 5.36742 4.18182 6.0303 4.18182 6.77273C4.18182 7.39394 4.32955 7.92803 4.625 8.375C4.92803 8.81439 5.31439 9.18182 5.78409 9.47727C6.25379 9.76515 6.74621 10.0038 7.26136 10.1932C7.77652 10.375 8.25 10.5227 8.68182 10.6364L11.0455 11.2727C11.6515 11.4318 12.3258 11.6515 13.0682 11.9318C13.8182 12.2121 14.5341 12.5947 15.2159 13.0795C15.9053 13.5568 16.4735 14.1705 16.9205 14.9205C17.3674 15.6705 17.5909 16.5909 17.5909 17.6818C17.5909 18.9394 17.2614 20.0758 16.6023 21.0909C15.9508 22.1061 14.9962 22.9129 13.7386 23.5114C12.4886 24.1098 10.9697 24.4091 9.18182 24.4091C7.51515 24.4091 6.07197 24.1402 4.85227 23.6023C3.64015 23.0644 2.68561 22.3144 1.98864 21.3523C1.29924 20.3902 0.909091 19.2727 0.818182 18H3.72727C3.80303 18.8788 4.09848 19.6061 4.61364 20.1818C5.13636 20.75 5.79545 21.1742 6.59091 21.4545C7.39394 21.7273 8.25758 21.8636 9.18182 21.8636C10.2576 21.8636 11.2235 21.6894 12.0795 21.3409C12.9356 20.9848 13.6136 20.4924 14.1136 19.8636C14.6136 19.2273 14.8636 18.4848 14.8636 17.6364C14.8636 16.8636 14.6477 16.2348 14.2159 15.75C13.7841 15.2652 13.2159 14.8712 12.5114 14.5682C11.8068 14.2652 11.0455 14 10.2273 13.7727L7.36364 12.9545C5.54545 12.4318 4.10606 11.6856 3.04545 10.7159C1.98485 9.74621 1.45455 8.47727 1.45455 6.90909C1.45455 5.60606 1.80682 4.4697 2.51136 3.5C3.22348 2.52273 4.17803 1.76515 5.375 1.22727C6.57955 0.681817 7.92424 0.40909 9.40909 0.40909C10.9091 0.40909 12.2424 0.678029 13.4091 1.21591C14.5758 1.74621 15.5 2.47348 16.1818 3.39773C16.8712 4.32197 17.2348 5.37121 17.2727 6.54545H14.5455ZM32.8608 16.8636V6.54545H35.5426V24H32.8608V21.0455H32.679C32.2699 21.9318 31.6335 22.6856 30.7699 23.3068C29.9063 23.9205 28.8153 24.2273 27.4972 24.2273C26.4062 24.2273 25.4366 23.9886 24.5881 23.5114C23.7396 23.0265 23.0729 22.2992 22.5881 21.3295C22.1032 20.3523 21.8608 19.1212 21.8608 17.6364V6.54545H24.5426V17.4545C24.5426 18.7273 24.8987 19.7424 25.6108 20.5C26.3305 21.2576 27.2472 21.6364 28.3608 21.6364C29.0275 21.6364 29.7055 21.4659 30.3949 21.125C31.0919 20.7841 31.6752 20.2614 32.1449 19.5568C32.6222 18.8523 32.8608 17.9545 32.8608 16.8636ZM40.4545 30.5455V6.54545H43.0455V9.31818H43.3636C43.5606 9.01515 43.8333 8.62879 44.1818 8.15909C44.5379 7.68182 45.0455 7.25758 45.7045 6.88636C46.3712 6.50758 47.2727 6.31818 48.4091 6.31818C49.8788 6.31818 51.1742 6.68561 52.2955 7.42045C53.4167 8.1553 54.2917 9.19697 54.9205 10.5455C55.5492 11.8939 55.8636 13.4848 55.8636 15.3182C55.8636 17.1667 55.5492 18.7689 54.9205 20.125C54.2917 21.4735 53.4205 22.5189 52.3068 23.2614C51.1932 23.9962 49.9091 24.3636 48.4545 24.3636C47.3333 24.3636 46.4356 24.178 45.7614 23.8068C45.0871 23.428 44.5682 23 44.2045 22.5227C43.8409 22.0379 43.5606 21.6364 43.3636 21.3182H43.1364V30.5455H40.4545ZM43.0909 15.2727C43.0909 16.5909 43.2841 17.7538 43.6705 18.7614C44.0568 19.7614 44.6212 20.5455 45.3636 21.1136C46.1061 21.6742 47.0152 21.9545 48.0909 21.9545C49.2121 21.9545 50.1477 21.6591 50.8977 21.0682C51.6553 20.4697 52.2235 19.6667 52.6023 18.6591C52.9886 17.6439 53.1818 16.5152 53.1818 15.2727C53.1818 14.0455 52.9924 12.9394 52.6136 11.9545C52.2424 10.9621 51.678 10.178 50.9205 9.60227C50.1705 9.01894 49.2273 8.72727 48.0909 8.72727C47 8.72727 46.0833 9.00379 45.3409 9.55682C44.5985 10.1023 44.0379 10.8674 43.6591 11.8523C43.2803 12.8295 43.0909 13.9697 43.0909 15.2727ZM59.9545 30.5455V6.54545H62.5455V9.31818H62.8636C63.0606 9.01515 63.3333 8.62879 63.6818 8.15909C64.0379 7.68182 64.5455 7.25758 65.2045 6.88636C65.8712 6.50758 66.7727 6.31818 67.9091 6.31818C69.3788 6.31818 70.6742 6.68561 71.7955 7.42045C72.9167 8.1553 73.7917 9.19697 74.4205 10.5455C75.0492 11.8939 75.3636 13.4848 75.3636 15.3182C75.3636 17.1667 75.0492 18.7689 74.4205 20.125C73.7917 21.4735 72.9205 22.5189 71.8068 23.2614C70.6932 23.9962 69.4091 24.3636 67.9545 24.3636C66.8333 24.3636 65.9356 24.178 65.2614 23.8068C64.5871 23.428 64.0682 23 63.7045 22.5227C63.3409 22.0379 63.0606 21.6364 62.8636 21.3182H62.6364V30.5455H59.9545ZM62.5909 15.2727C62.5909 16.5909 62.7841 17.7538 63.1705 18.7614C63.5568 19.7614 64.1212 20.5455 64.8636 21.1136C65.6061 21.6742 66.5152 21.9545 67.5909 21.9545C68.7121 21.9545 69.6477 21.6591 70.3977 21.0682C71.1553 20.4697 71.7235 19.6667 72.1023 18.6591C72.4886 17.6439 72.6818 16.5152 72.6818 15.2727C72.6818 14.0455 72.4924 12.9394 72.1136 11.9545C71.7424 10.9621 71.178 10.178 70.4205 9.60227C69.6705 9.01894 68.7273 8.72727 67.5909 8.72727C66.5 8.72727 65.5833 9.00379 64.8409 9.55682C64.0985 10.1023 63.5379 10.8674 63.1591 11.8523C62.7803 12.8295 62.5909 13.9697 62.5909 15.2727ZM82.1364 0.727272V24H79.4545V0.727272H82.1364ZM88.7756 30.5455C88.321 30.5455 87.9157 30.5076 87.5597 30.4318C87.2036 30.3636 86.9574 30.2955 86.821 30.2273L87.5028 27.8636C88.1544 28.0303 88.7301 28.0909 89.2301 28.0455C89.7301 28 90.1733 27.7765 90.5597 27.375C90.9536 26.9811 91.3134 26.3409 91.6392 25.4545L92.1392 24.0909L85.6847 6.54545H88.5938L93.4119 20.4545H93.5938L98.4119 6.54545H101.321L93.9119 26.5455C93.5786 27.447 93.1657 28.1932 92.6733 28.7841C92.1809 29.3826 91.6089 29.8258 90.9574 30.1136C90.3134 30.4015 89.5862 30.5455 88.7756 30.5455ZM104.861 24V6.54545H107.452V9.27273H107.679C108.043 8.34091 108.63 7.61742 109.44 7.10227C110.251 6.57955 111.224 6.31818 112.361 6.31818C113.512 6.31818 114.471 6.57955 115.236 7.10227C116.009 7.61742 116.611 8.34091 117.043 9.27273H117.224C117.671 8.37121 118.342 7.6553 119.236 7.125C120.13 6.58712 121.202 6.31818 122.452 6.31818C124.012 6.31818 125.289 6.80682 126.281 7.78409C127.274 8.75379 127.77 10.2652 127.77 12.3182V24H125.088V12.3182C125.088 11.0303 124.736 10.1098 124.031 9.55682C123.327 9.00379 122.497 8.72727 121.543 8.72727C120.315 8.72727 119.365 9.09848 118.69 9.84091C118.016 10.5758 117.679 11.5076 117.679 12.6364V24H114.952V12.0455C114.952 11.053 114.63 10.2538 113.986 9.64773C113.342 9.03409 112.512 8.72727 111.497 8.72727C110.8 8.72727 110.149 8.91288 109.543 9.28409C108.944 9.6553 108.459 10.1705 108.088 10.8295C107.724 11.4811 107.543 12.2348 107.543 13.0909V24H104.861ZM137.81 24.4091C136.704 24.4091 135.7 24.2008 134.798 23.7841C133.897 23.3598 133.181 22.75 132.651 21.9545C132.12 21.1515 131.855 20.1818 131.855 19.0455C131.855 18.0455 132.052 17.2348 132.446 16.6136C132.84 15.9848 133.366 15.4924 134.026 15.1364C134.685 14.7803 135.412 14.5152 136.207 14.3409C137.01 14.1591 137.817 14.0152 138.628 13.9091C139.688 13.7727 140.548 13.6705 141.207 13.6023C141.874 13.5265 142.359 13.4015 142.662 13.2273C142.973 13.053 143.128 12.75 143.128 12.3182V12.2273C143.128 11.1061 142.821 10.2348 142.207 9.61364C141.601 8.99242 140.681 8.68182 139.446 8.68182C138.166 8.68182 137.162 8.96212 136.435 9.52273C135.707 10.0833 135.196 10.6818 134.901 11.3182L132.355 10.4091C132.81 9.34848 133.416 8.52273 134.173 7.93182C134.938 7.33333 135.772 6.91667 136.673 6.68182C137.582 6.43939 138.476 6.31818 139.355 6.31818C139.916 6.31818 140.56 6.38636 141.287 6.52273C142.022 6.65151 142.73 6.92045 143.412 7.32954C144.101 7.73864 144.673 8.35606 145.128 9.18182C145.582 10.0076 145.81 11.1136 145.81 12.5V24H143.128V21.6364H142.991C142.81 22.0152 142.507 22.4205 142.082 22.8523C141.658 23.2841 141.094 23.6515 140.389 23.9545C139.685 24.2576 138.825 24.4091 137.81 24.4091ZM138.219 22C139.279 22 140.173 21.7917 140.901 21.375C141.635 20.9583 142.188 20.4205 142.56 19.7614C142.938 19.1023 143.128 18.4091 143.128 17.6818V15.2273C143.014 15.3636 142.764 15.4886 142.378 15.6023C141.999 15.7083 141.56 15.803 141.06 15.8864C140.567 15.9621 140.086 16.0303 139.616 16.0909C139.154 16.1439 138.779 16.1894 138.491 16.2273C137.795 16.3182 137.143 16.4659 136.537 16.6705C135.938 16.8674 135.454 17.1667 135.082 17.5682C134.719 17.9621 134.537 18.5 134.537 19.1818C134.537 20.1136 134.882 20.8182 135.571 21.2955C136.268 21.7652 137.151 22 138.219 22ZM150.705 24V6.54545H153.295V9.18182H153.477C153.795 8.31818 154.371 7.61742 155.205 7.07954C156.038 6.54167 156.977 6.27273 158.023 6.27273C158.22 6.27273 158.466 6.27651 158.761 6.28409C159.057 6.29167 159.28 6.30303 159.432 6.31818V9.04545C159.341 9.02273 159.133 8.98864 158.807 8.94318C158.489 8.89015 158.152 8.86364 157.795 8.86364C156.947 8.86364 156.189 9.04167 155.523 9.39773C154.864 9.74621 154.341 10.2311 153.955 10.8523C153.576 11.4659 153.386 12.1667 153.386 12.9545V24H150.705ZM171.295 6.54545V8.81818H162.25V6.54545H171.295ZM164.886 2.36364H167.568V19C167.568 19.7576 167.678 20.3258 167.898 20.7045C168.125 21.0758 168.413 21.3258 168.761 21.4545C169.117 21.5758 169.492 21.6364 169.886 21.6364C170.182 21.6364 170.424 21.6212 170.614 21.5909C170.803 21.553 170.955 21.5227 171.068 21.5L171.614 23.9091C171.432 23.9773 171.178 24.0455 170.852 24.1136C170.527 24.1894 170.114 24.2273 169.614 24.2273C168.856 24.2273 168.114 24.0644 167.386 23.7386C166.667 23.4129 166.068 22.9167 165.591 22.25C165.121 21.5833 164.886 20.7424 164.886 19.7273V2.36364ZM176.068 24V0.727272H178.75V9.31818H178.977C179.174 9.01515 179.447 8.62879 179.795 8.15909C180.152 7.68182 180.659 7.25758 181.318 6.88636C181.985 6.50758 182.886 6.31818 184.023 6.31818C185.492 6.31818 186.788 6.68561 187.909 7.42045C189.03 8.1553 189.905 9.19697 190.534 10.5455C191.163 11.8939 191.477 13.4848 191.477 15.3182C191.477 17.1667 191.163 18.7689 190.534 20.125C189.905 21.4735 189.034 22.5189 187.92 23.2614C186.807 23.9962 185.523 24.3636 184.068 24.3636C182.947 24.3636 182.049 24.178 181.375 23.8068C180.701 23.428 180.182 23 179.818 22.5227C179.455 22.0379 179.174 21.6364 178.977 21.3182H178.659V24H176.068ZM178.705 15.2727C178.705 16.5909 178.898 17.7538 179.284 18.7614C179.67 19.7614 180.235 20.5455 180.977 21.1136C181.72 21.6742 182.629 21.9545 183.705 21.9545C184.826 21.9545 185.761 21.6591 186.511 21.0682C187.269 20.4697 187.837 19.6667 188.216 18.6591C188.602 17.6439 188.795 16.5152 188.795 15.2727C188.795 14.0455 188.606 12.9394 188.227 11.9545C187.856 10.9621 187.292 10.178 186.534 9.60227C185.784 9.01894 184.841 8.72727 183.705 8.72727C182.614 8.72727 181.697 9.00379 180.955 9.55682C180.212 10.1023 179.652 10.8674 179.273 11.8523C178.894 12.8295 178.705 13.9697 178.705 15.2727ZM202.17 24.3636C200.716 24.3636 199.432 23.9962 198.318 23.2614C197.205 22.5189 196.333 21.4735 195.705 20.125C195.076 18.7689 194.761 17.1667 194.761 15.3182C194.761 13.4848 195.076 11.8939 195.705 10.5455C196.333 9.19697 197.208 8.1553 198.33 7.42045C199.451 6.68561 200.746 6.31818 202.216 6.31818C203.352 6.31818 204.25 6.50758 204.909 6.88636C205.576 7.25758 206.083 7.68182 206.432 8.15909C206.788 8.62879 207.064 9.01515 207.261 9.31818H207.489V0.727272H210.17V24H207.58V21.3182H207.261C207.064 21.6364 206.784 22.0379 206.42 22.5227C206.057 23 205.538 23.428 204.864 23.8068C204.189 24.178 203.292 24.3636 202.17 24.3636ZM202.534 21.9545C203.61 21.9545 204.519 21.6742 205.261 21.1136C206.004 20.5455 206.568 19.7614 206.955 18.7614C207.341 17.7538 207.534 16.5909 207.534 15.2727C207.534 13.9697 207.345 12.8295 206.966 11.8523C206.587 10.8674 206.027 10.1023 205.284 9.55682C204.542 9.00379 203.625 8.72727 202.534 8.72727C201.398 8.72727 200.451 9.01894 199.693 9.60227C198.943 10.178 198.379 10.9621 198 11.9545C197.629 12.9394 197.443 14.0455 197.443 15.2727C197.443 16.5152 197.633 17.6439 198.011 18.6591C198.398 19.6667 198.966 20.4697 199.716 21.0682C200.473 21.6591 201.413 21.9545 202.534 21.9545Z" fill="white"/>
</svg>
