<svg xmlns="http://www.w3.org/2000/svg" width="512" height="512" fill="#232F3E" xmlns:v="https://vecta.io/nano"><path d="M349.266 240.398a7.51 7.51 0 0 0-7.51 7.51v8.676a7.51 7.51 0 0 0 7.51 7.51c4.147 0 7.51-3.363 7.51-7.51v-8.676a7.51 7.51 0 0 0-7.51-7.51zm58.575 0c-4.147 0-7.51 3.363-7.51 7.51v8.676a7.51 7.51 0 0 0 15.02 0v-8.676a7.51 7.51 0 0 0-7.51-7.51zm-8.759 43.237c-3.367-2.422-8.06-1.657-10.483 1.71-1.475 2.05-5.154 4.118-10.046 4.118s-8.571-2.068-10.046-4.118c-2.423-3.367-7.116-4.132-10.483-1.71a7.51 7.51 0 0 0-1.71 10.483c4.671 6.491 12.985 10.366 22.239 10.366s17.568-3.875 22.239-10.366a7.51 7.51 0 0 0-1.71-10.483zM108.99 251.769a7.51 7.51 0 0 0-7.51 7.51v8.4a7.51 7.51 0 1 0 15.02 0v-8.4a7.51 7.51 0 0 0-7.51-7.51zm48.371 41.908a7.51 7.51 0 0 0-10.482 1.71c-1.393 1.935-4.88 3.888-9.533 3.888s-8.14-1.953-9.533-3.888c-2.423-3.367-7.117-4.132-10.483-1.71s-4.132 7.116-1.71 10.483c4.567 6.347 12.688 10.135 21.725 10.135s17.159-3.789 21.726-10.135c2.422-3.366 1.657-8.06-1.71-10.483zm138.115 110.702a7.51 7.51 0 0 0-7.51 7.51v14.649a7.51 7.51 0 1 0 15.02 0v-14.649a7.51 7.51 0 0 0-7.51-7.51zm-6.792-391.318c-12.258 0-23.798 4.475-32.719 12.498-8.921-8.023-20.461-12.498-32.719-12.498-27.037 0-49.033 21.996-49.033 49.033-.001 23.803 13.884 46.696 40.152 66.204 19.146 14.219 38.066 21.7 38.862 22.011.88.344 1.808.516 2.737.516s1.857-.172 2.737-.516c.796-.311 19.715-7.792 38.862-22.011 26.269-19.509 40.154-42.401 40.154-66.204 0-27.037-21.996-49.033-49.033-49.033zm-32.721 122.095c-12.889-5.708-66.731-32.018-66.731-73.061 0-18.755 15.258-34.013 34.013-34.013a33.83 33.83 0 0 1 26.804 13.073 7.51 7.51 0 0 0 11.828 0c6.502-8.308 16.272-13.073 26.804-13.073 18.755 0 34.013 15.258 34.013 34.013 0 41.049-53.854 67.36-66.731 73.061zm212.458 211.113l-47.475-13.979-.689-.175-7.449-1.497a3.82 3.82 0 0 1-3.057-3.733v-3.583c19.497-8.891 34.579-25.829 40.949-46.558h5.741c10.129 0 18.37-8.241 18.37-18.37V246.34c0-5.418-2.406-10.478-6.397-13.916v-13.246c0-43.173-35.124-78.297-78.297-78.297H366.99c-43.173 0-78.297 35.124-78.297 78.297v13.246c-3.991 3.438-6.397 8.498-6.397 13.916v12.034c0 10.129 8.241 18.37 18.37 18.37h5.741c6.224 20.252 20.753 36.9 39.6 45.947v4.465a3.82 3.82 0 0 1-3.057 3.734l-5.984 1.203-.116.023a7.51 7.51 0 0 0-.691.175l-47.473 13.978c-16.535 4.868-29.847 16.554-37.23 31.402-3.198-5.079-7.189-9.644-11.826-13.491l18.299-5.795c10.481-3.319 17.357-13.314 16.723-24.304-1.128-19.541-5.882-59.123-25.047-104.665-23.81-56.579-57.938-78.25-83.323-86.366-6.483-8.985-17.033-14.849-28.934-14.849s-22.452 5.864-28.935 14.849c-25.385 8.117-59.513 29.788-83.323 86.366C5.923 274.958 1.169 314.54.041 334.08c-.635 10.99 6.242 20.985 16.723 24.304l18.298 5.795c-12.641 10.487-20.497 26.304-20.497 43.344v83.905a7.51 7.51 0 0 0 7.51 7.51l482.415-.049a7.51 7.51 0 0 0 7.51-7.51v-86.85c0-26.748-17.921-50.706-43.579-58.26zM235.759 235.242c18.293 43.47 22.824 81.127 23.896 99.704.238 4.126-2.337 7.876-6.262 9.119l-31.828 10.08c-.593-.197-1.188-.383-1.783-.558l-43.497-12.809c-.211-.063-.425-.115-.642-.159l-6.818-1.371c-1.326-.266-2.288-1.441-2.288-2.793v-3.446c.289-.126.567-.271.854-.401.786-.355 1.567-.715 2.338-1.097l1.134-.582a74.83 74.83 0 0 0 2.304-1.238l.978-.563a73.4 73.4 0 0 0 2.45-1.494l.702-.451a72.28 72.28 0 0 0 2.773-1.903l.269-.191c12.672-9.21 22.301-22.363 27.04-37.655h5.537a18.05 18.05 0 0 0 18.024-18.024v-11.651c0-.553-.034-1.098-.083-1.638l-.039-.391c-.06-.532-.136-1.06-.241-1.578-.007-.034-.017-.067-.024-.1-.103-.491-.231-.973-.373-1.449l-.11-.359c-.159-.495-.334-.982-.534-1.457-.022-.052-.047-.101-.069-.153a18.18 18.18 0 0 0-.614-1.273l-.17-.317a18.16 18.16 0 0 0-.794-1.306c-.041-.061-.085-.118-.127-.178a18.17 18.17 0 0 0-.818-1.093l-.216-.267a17.85 17.85 0 0 0-1.022-1.124c-.06-.061-.124-.118-.185-.178a18.45 18.45 0 0 0-.993-.903l-.248-.21c-.393-.32-.799-.625-1.219-.912-.079-.054-.161-.104-.24-.156-.192-.127-.382-.257-.579-.377a83.96 83.96 0 0 0-.098-3.727l-.076-1.344-.176-2.306-.165-1.767-.077-.608c-2.496-21.446-13.01-40.467-28.464-53.996-1.442-1.263-2.92-2.481-4.443-3.643l-.218-.171c-.467-.354-.944-.696-1.419-1.04l-1.687-1.201-1.165-.792a86.48 86.48 0 0 0-2.552-1.638l-.455-.286a84.87 84.87 0 0 0-3.307-1.904l-.518-.276a84.24 84.24 0 0 0-2.917-1.496l-.688-.334-.834-.406c.022-.513.034-1.026.034-1.538 0-.661-.021-1.317-.057-1.97-.002-.031-.001-.062-.003-.093 20.479 9.716 44.652 30.308 62.802 73.438zm-70.057 39.947a7.51 7.51 0 0 0 7.51-7.51v-8.4a7.47 7.47 0 0 0-1.524-4.522h23.938v11.018a57.12 57.12 0 0 1-.086 3.121c-.004.068-.012.135-.015.203a58.69 58.69 0 0 1-.242 2.952l-.009.071a59.27 59.27 0 0 1-.415 3.043c-.008.051-.019.101-.027.152-.159.958-.342 1.913-.548 2.865l-.288 1.244c-.142.589-.293 1.175-.453 1.758l-.342 1.202-.368 1.199c-.139.433-.288.861-.437 1.289a56.34 56.34 0 0 1-.697 1.894l-.308.78c-.645 1.591-1.357 3.152-2.137 4.674l-.062.121A58.98 58.98 0 0 1 173 311.828l-.212.166a57 57 0 0 1-1.248.933l-.707.503a57.82 57.82 0 0 1-1.672 1.138l-1.167.749-.907.552-1.613.929-.661.363a56.37 56.37 0 0 1-1.88.964l-.673.325c-.726.345-1.458.681-2.2.996-.085.036-.171.069-.257.104-.676.283-1.36.551-2.048.809l-.765.281c-.457.164-.919.315-1.381.468l-1.258.41c-.429.131-.864.248-1.297.369-.733.205-1.47.397-2.21.573l-1.487.344c-.403.085-.808.155-1.213.232l-1.464.262-1.19.176-1.564.199-1.117.117c-.59.055-1.184.098-1.78.136l-.936.059c-.911.043-1.826.07-2.748.07-.947 0-1.889-.027-2.825-.072-.286-.014-.571-.039-.856-.057l-1.962-.15-.952-.106-1.857-.237-.931-.145c-.628-.102-1.254-.214-1.875-.336l-.851-.172c-.66-.14-1.315-.293-1.966-.455l-.713-.178c-.735-.193-1.463-.402-2.186-.622l-.44-.131c-3.559-1.117-6.971-2.567-10.201-4.313l-.307-.168c-.722-.396-1.435-.806-2.137-1.23l-.527-.329c-.478-.296-.95-.601-1.419-.911l-1.091-.738c-.131-.09-.259-.185-.389-.276-9.247-6.55-16.521-15.732-20.718-26.288l-.082-.207a57.48 57.48 0 0 1-1.035-2.865l-.165-.488-.387-1.266-.328-1.153-.412-1.588-.325-1.407a59.96 59.96 0 0 1-.538-2.81c-.011-.069-.026-.137-.037-.206-.162-.994-.297-1.991-.407-2.988-.004-.041-.011-.081-.016-.122-.105-.969-.182-1.939-.238-2.909l-.018-.241a58 58 0 0 1-.085-3.118V253.7c.07-.029.136-.066.205-.095.276-.118.547-.244.814-.379l.319-.162c.357-.191.707-.393 1.046-.614.006-.004.011-.008.017-.012.333-.218.653-.453.967-.698.094-.073.185-.15.277-.226.233-.192.46-.391.68-.597l.258-.243c.58-.57 1.113-1.192 1.591-1.862.07-.098.135-.198.203-.297a13.88 13.88 0 0 0 .492-.781l.183-.315c.201-.365.393-.737.563-1.123.157-.356.287-.724.387-1.101l5.537-20.785c.329-1.235 1.254-1.695 1.776-1.859a2.61 2.61 0 0 1 2.532.511c26.874 22.697 48.353 29.851 63.066 31.358-1.112 1.31-1.787 3.003-1.787 4.856v8.4a7.51 7.51 0 0 0 7.507 7.513zm44.641-2.773c.042-.454.061-.908.094-1.363l.122-1.774c.057-1.169.089-2.338.089-3.504v-11.018h.294 1.973a3.01 3.01 0 0 1 3.004 3.004v11.651a3.01 3.01 0 0 1-3.004 3.004h-2.572zm-93.252-112.537a20.21 20.21 0 0 1 .369-1.564c.028-.102.065-.202.095-.304.128-.43.267-.855.421-1.273l.165-.426c.159-.402.329-.798.512-1.188l.145-.311c3.361-6.857 10.411-11.593 18.549-11.593s15.185 4.734 18.547 11.59c.052.105.099.212.149.318a20.54 20.54 0 0 1 .508 1.18l.167.431c.154.416.292.839.419 1.267.031.103.067.204.096.308a20.29 20.29 0 0 1 .368 1.563c.009.045.014.09.023.135a83.08 83.08 0 0 0-2.909-.656l-.755-.15a84.21 84.21 0 0 0-3.492-.625l-.273-.046a85.95 85.95 0 0 0-3.759-.479l-.737-.078c-1.24-.122-2.483-.217-3.73-.285l-.675-.03c-1.312-.06-2.627-.1-3.947-.1s-2.634.04-3.947.1l-.676.03c-1.247.067-2.491.163-3.73.285l-.738.078a82.95 82.95 0 0 0-3.758.479c-.092.014-.183.032-.275.046a83.97 83.97 0 0 0-3.487.624l-.761.151c-.972.203-1.941.418-2.906.656.008-.043.013-.089.022-.133zm-12.624 20.945l.438-.237c1.841-.969 3.732-1.858 5.665-2.663l.663-.266a68.24 68.24 0 0 1 2.049-.789l1.383-.49 1.66-.549 1.48-.45 1.661-.461 1.492-.38 1.729-.391 1.459-.302c.609-.117 1.223-.22 1.838-.321l1.397-.223c.656-.094 1.317-.171 1.979-.246l1.304-.148c.739-.07 1.484-.119 2.23-.166l1.094-.074c1.113-.053 2.231-.083 3.357-.083a70.48 70.48 0 0 1 3.356.083c.367.017.732.051 1.099.074l2.224.166c.438.042.873.099 1.309.149l1.973.246c.469.067.935.147 1.403.224l1.832.32 1.465.303 1.723.389 1.498.382 1.654.459 1.487.452 1.653.547 1.39.492 2.051.79.656.264c1.935.806 3.826 1.695 5.669 2.665l.431.233c.753.403 1.497.82 2.233 1.25l.68.402a67.71 67.71 0 0 1 1.941 1.21l.727.468c.696.461 1.381.938 2.06 1.423a67.41 67.41 0 0 1 1.606 1.193l.883.673c.562.442 1.116.894 1.664 1.353l.348.292c13.464 11.425 22.369 27.743 24.402 45.576l.117 1.038c.048.489.084.98.121 1.471l.118 1.87.031.697h-4.018-36.838c-22.94 0-47.247-17.635-59.693-28.147-.363-.307-.739-.592-1.121-.866l-.325-.226a17.1 17.1 0 0 0-.933-.597l-.278-.168c-.399-.228-.804-.441-1.216-.636-.093-.044-.188-.083-.281-.125-.334-.151-.672-.292-1.013-.421l-.372-.138c-.406-.144-.815-.276-1.23-.389-.027-.007-.053-.017-.08-.024a17.67 17.67 0 0 0-1.328-.295c-.128-.024-.257-.044-.385-.065a17.87 17.87 0 0 0-1.057-.14l-.339-.035a18.04 18.04 0 0 0-1.356-.06c-.025 0-.051-.003-.076-.003-.097 0-.193.01-.29.011a18.07 18.07 0 0 0-.869.033c-.15.01-.3.024-.451.038a17.12 17.12 0 0 0-.809.093l-.453.067c-.285.047-.569.103-.852.164l-.387.082c-.41.098-.819.207-1.226.335a17.6 17.6 0 0 0-11.787 12.322l-5.113 19.191h-1.422-4.018l.031-.696c.03-.627.072-1.251.119-1.873l.121-1.468c.034-.35.079-.697.118-1.045 2.034-17.832 10.939-34.147 24.402-45.571l.347-.291 1.667-1.355.87-.663 1.632-1.211a69.88 69.88 0 0 1 2.043-1.411l.736-.473 1.932-1.204.687-.406a67.93 67.93 0 0 1 2.229-1.249zM21.299 344.065c-3.926-1.243-6.501-4.993-6.263-9.119 1.073-18.578 5.603-56.234 23.896-99.704 18.15-43.129 42.323-63.722 62.806-73.436-.002.031-.001.062-.003.093-.036.652-.057 1.309-.057 1.97 0 .512.011 1.024.034 1.538-.28.13-.553.272-.832.404l-.694.337c-.98.479-1.95.976-2.907 1.491l-.529.282c-1.116.611-2.218 1.242-3.3 1.9-.158.096-.312.199-.47.296a84.66 84.66 0 0 0-2.536 1.627l-1.175.799-1.674 1.192-1.43 1.049c-.053.04-.104.083-.156.123-17.903 13.638-30.234 34.214-32.965 57.685l-.077.608c-.064.587-.113 1.177-.165 1.767l-.176 2.306-.076 1.344a83.92 83.92 0 0 0-.098 3.727c-.197.12-.387.25-.579.377l-.24.156c-.42.287-.826.592-1.219.912-.084.068-.165.14-.248.21-.342.289-.674.59-.993.903l-.185.178c-.357.36-.697.736-1.022 1.124l-.216.267a18.28 18.28 0 0 0-.818 1.093c-.041.06-.086.118-.127.178-.284.422-.546.859-.794 1.306l-.17.317c-.22.416-.427.839-.614 1.273-.022.051-.048.101-.069.153-.2.475-.375.962-.534 1.457l-.11.359a17.88 17.88 0 0 0-.373 1.449c-.007.034-.017.067-.024.1a17.8 17.8 0 0 0-.241 1.578c-.015.13-.027.26-.039.391-.049.541-.083 1.085-.083 1.638v11.651a18.05 18.05 0 0 0 18.024 18.024h5.535c.005.016.011.031.016.047.146.469.314.929.469 1.394 6.217 18.841 19.727 34.241 37.636 42.876l.285.139 1.203.586v4.226a2.86 2.86 0 0 1-2.291 2.794l-5.583 1.124a7.84 7.84 0 0 0-.639.158L54.91 353.587c-.014.004-.029.009-.043.014a54.49 54.49 0 0 0-1.74.545l-31.828-10.081zm42.835-74.784c.027.58.078 1.154.119 1.73l.096 1.404h-2.572a3.01 3.01 0 0 1-3.004-3.004V257.76a3.01 3.01 0 0 1 3.004-3.004h1.974.294v11.018a72.07 72.07 0 0 0 .089 3.507zm180.975 214.637h-.003-20.682V413.08c0-3.766-1.226-7.493-3.451-10.493-9.538-12.863-24.777-20.542-40.764-20.542-15.112 0-29.327 6.67-39.001 18.298-1.327 1.596-2.989 1.835-3.862 1.835s-2.535-.238-3.863-1.835a50.59 50.59 0 0 0-39-18.298c-15.987 0-31.226 7.679-40.764 20.542-2.226 3.001-3.451 6.728-3.451 10.494v13.458a7.51 7.51 0 0 0 7.51 7.51c4.147 0 7.51-3.363 7.51-7.51v-13.458a2.61 2.61 0 0 1 .496-1.547c6.818-9.195 17.279-14.469 28.699-14.469 10.636 0 20.642 4.696 27.453 12.884 3.833 4.607 9.449 7.25 15.411 7.249s11.577-2.642 15.409-7.249c6.811-8.188 16.817-12.884 27.454-12.884 11.42 0 21.881 5.273 28.699 14.469a2.61 2.61 0 0 1 .495 1.546v70.838H65.288v-22.435a7.51 7.51 0 0 0-7.51-7.51c-4.147 0-7.51 3.363-7.51 7.51v22.435H29.585v-76.395c0-17.461 11.258-33.164 27.617-38.894l.347-.126c.206-.07.416-.131.624-.198l.981-.311h-.001l43.18-12.715 5.26-1.057c.512-.103 1.015-.228 1.509-.374.168-.049.329-.114.494-.168.321-.105.644-.207.957-.329.194-.076.38-.167.57-.249.275-.119.552-.233.819-.364.198-.098.387-.21.581-.314.248-.134.499-.264.74-.409.196-.118.382-.249.572-.374.227-.149.456-.294.676-.453.189-.137.367-.285.55-.428.208-.164.419-.324.62-.496.179-.153.347-.317.519-.477.191-.178.384-.353.567-.538.167-.169.323-.347.483-.522.174-.191.349-.379.515-.577.153-.184.297-.375.443-.564.156-.203.314-.404.461-.614.138-.196.267-.399.398-.602.139-.214.278-.428.407-.648.122-.208.235-.421.349-.635.121-.225.241-.45.352-.681.105-.218.201-.441.297-.664.102-.235.202-.47.294-.71a17.09 17.09 0 0 0 .242-.69c.082-.244.162-.489.233-.738a16.84 16.84 0 0 0 .185-.711 17.56 17.56 0 0 0 .171-.763 17.89 17.89 0 0 0 .125-.729 18.29 18.29 0 0 0 .105-.785c.027-.247.047-.494.063-.744.009-.143.03-.283.036-.427.129.028.261.046.391.073.544.114 1.094.207 1.642.309l1.943.348c.641.101 1.289.178 1.936.262l1.69.215c.732.078 1.471.13 2.209.186l1.473.112c.77.043 1.546.059 2.321.078l1.412.036c.135.001.268.01.404.01.666 0 1.325-.033 1.987-.05l1.344-.034c.828-.037 1.649-.102 2.47-.166l1.247-.095c.842-.081 1.675-.188 2.508-.297l1.181-.151c.881-.13 1.752-.287 2.622-.448l.854-.146c.004.06.015.119.02.179.018.225.048.447.075.671a17.89 17.89 0 0 0 .112.841c.037.224.085.444.131.665a16.59 16.59 0 0 0 .181.808 16.26 16.26 0 0 0 .186.654 17.51 17.51 0 0 0 .246.777c.075.215.156.426.239.637.098.251.199.5.308.746a17.17 17.17 0 0 0 .289.614 18.34 18.34 0 0 0 .367.711c.109.199.221.395.337.589.137.229.278.454.424.676a17.77 17.77 0 0 0 .382.559c.155.216.315.428.479.637.139.178.279.354.425.526.172.204.351.401.532.597l.464.489a16.92 16.92 0 0 0 .583.553l.499.449c.206.176.42.342.634.508.175.136.349.275.529.404.224.161.456.31.688.461.184.119.364.243.552.355.243.145.494.277.744.411.189.101.374.208.567.303.267.131.543.246.818.363.187.08.37.168.56.242.311.121.631.223.95.326.164.053.322.116.488.164a17.83 17.83 0 0 0 1.495.37l6.495 1.307 43.182 12.714a39.64 39.64 0 0 1 1.61.511c.061.021.121.045.182.066 16.445 5.682 27.776 21.433 27.776 38.951v76.397zm175.753-125.505l10.241 18.083-29.753 46.083 19.512-64.166zm-38.164 22.796h-8.29l-2.932-5.08 7.078-6.462 7.077 6.461-2.933 5.081zm1.917 44.776l-3.318 10.911-2.744 9.023-6.059-19.925 4.119-29.764h3.843l4.159 29.755zm-26.091-73.438c4.577 1.203 9.247 1.975 13.943 2.338l-15.578 14.223c-.492.449-.888.964-1.235 1.505l-6.22-20.454 9.09 2.388zm-.26-15.598a18.77 18.77 0 0 0 2.744-8.932 75.3 75.3 0 0 0 2.166.483l.656.128c.916.182 1.835.347 2.758.494l.675.111c.993.149 1.991.271 2.99.381l.986.106a76.49 76.49 0 0 0 2.91.222l1.053.054a75.22 75.22 0 0 0 2.966.075c.129.001.256.01.386.01.192 0 .381-.013.573-.015a75.47 75.47 0 0 0 3.083-.078l.731-.044c.989-.057 1.977-.131 2.963-.226l.472-.042c1.112-.114 2.22-.26 3.325-.424l.517-.076c1.11-.172 2.215-.372 3.314-.593l.416-.085.837-.172c.249 3.238 1.331 6.281 3.048 8.889l-3.068.806c-10.607 2.787-21.818 2.787-32.424 0l-4.077-1.072zm26.376 17.936c4.696-.362 9.365-1.135 13.942-2.338l9.09-2.388-6.219 20.453c-.346-.54-.743-1.055-1.235-1.504l-15.578-14.223zm69.128-94.434l.155-2.167a74.85 74.85 0 0 0 .093-3.667v-11.626h2.356c.032 0 .068.003.099.003a3.22 3.22 0 0 1 .642.07.59.59 0 0 1 .045.011c.145.033.273.087.406.134.081.03.165.045.245.081 1.205.544 1.982 1.741 1.982 3.049v12.034c0 1.847-1.503 3.349-3.349 3.349h-2.763c.038-.423.056-.847.089-1.271zm-153.102 1.271h0c-1.847.001-3.349-1.502-3.349-3.348V246.34a3.36 3.36 0 0 1 1.982-3.049 3.42 3.42 0 0 1 .599-.199c.035-.009.063-.019.101-.028a3.23 3.23 0 0 1 .642-.07c.031 0 .063-.002.094-.003h2.356v11.626a74.85 74.85 0 0 0 .093 3.667c.035.725.099 1.441.154 2.16l.091 1.278h-2.763zm12.086-56.983a7.44 7.44 0 0 0-.836.292c-.119.05-.231.112-.347.168-.146.07-.295.134-.436.213s-.27.17-.404.256c-.108.07-.221.134-.326.209-.139.1-.267.213-.398.322-.09.075-.185.144-.271.223-.13.118-.248.248-.369.375-.078.082-.16.158-.234.243-.117.134-.221.278-.328.421-.067.089-.138.173-.201.265-.101.148-.19.304-.28.46-.056.096-.117.188-.169.287-.084.159-.154.326-.227.492-.038.088-.085.171-.12.261l-.04.104c-.004.011-.01.022-.015.033l-.021.061-.018.05c-.389 1.058-.749 2.123-1.089 3.194-.007.023-.016.045-.023.067-.005.015-.009.03-.013.044a74.87 74.87 0 0 0-2.874 12.996v-6.599c0-34.89 28.385-63.276 63.276-63.276h23.126c34.89 0 63.276 28.385 63.276 63.276v6.618l-.174-1.204c-.005-.033-.008-.066-.013-.099l-.1-.69c-.002-.013-.005-.028-.007-.041a76.05 76.05 0 0 0-.551-3.087c-.002-.008-.003-.016-.004-.023l-.167-.801-.012-.05a76.36 76.36 0 0 0-.647-2.803c-.006-.024-.01-.047-.016-.071l-.069-.283-.023-.093-.033-.118c-.044-.161-.116-.307-.17-.463-.079-.227-.149-.457-.248-.673-.075-.162-.171-.31-.257-.465-.113-.206-.218-.417-.349-.61-.101-.148-.221-.279-.331-.419-.141-.179-.275-.365-.431-.53-.13-.137-.278-.254-.417-.38-.159-.145-.311-.297-.482-.428-.165-.126-.347-.228-.522-.34-.165-.105-.322-.221-.494-.313-.2-.107-.414-.186-.624-.275-.164-.069-.322-.152-.491-.209-.226-.077-.462-.123-.696-.178-.168-.04-.33-.094-.501-.122-.227-.037-.461-.042-.693-.058-.177-.013-.349-.044-.528-.044h-.084-.002l-.176.002a7.51 7.51 0 0 0-3.746 1.049c-8.06 4.779-18.739 7.202-31.738 7.202-13.212 0-26.584-4.191-39.515-8.244-16.377-5.133-33.254-10.417-50.427-7.515l-.508.082-.175.034a55.44 55.44 0 0 0-5.218 1.205zm6.749 62.734c-.211-.973-.398-1.949-.561-2.928l-.036-.198c-.169-1.037-.31-2.077-.425-3.118-.004-.037-.01-.073-.014-.11a60.9 60.9 0 0 1-.249-3.037c-.004-.077-.013-.153-.018-.23a59.26 59.26 0 0 1-.089-3.235v-19.02l.001-.117c0-.601.015-1.195.033-1.788l.032-.85.033-.618.01-.15.036-.506.144-1.902c.027-.287.061-.568.094-.848l.039-.331.214-1.686c.059-.413.127-.823.195-1.234l.284-1.589.253-1.244.354-1.534.029-.12.279-1.115c.136-.513.287-1.022.434-1.525l.036-.121c.315-.057.633-.092.949-.142.547-.086 1.093-.181 1.642-.246a45.02 45.02 0 0 1 2.078-.185c.179-.013.357-.037.537-.048 10.276-.616 21.02 2.127 32.192 5.526l6.577 2.039c9.632 3.019 19.489 6.108 29.75 7.744 4.664.744 9.411 1.187 14.258 1.187 2.385 0 4.699-.089 6.969-.232 1.663-.105 3.304-.239 4.904-.421l.362-.035c.815-.096 1.606-.219 2.404-.335l1.425-.199c.482-.078.946-.178 1.422-.263l2.28-.422c.484-.101.949-.225 1.426-.334l2.144-.502c.687-.179 1.351-.385 2.024-.581l1.417-.407c.559-.176 1.096-.377 1.645-.566l1.662-.572.013.111c.089.888.154 1.78.204 2.673l.031.645c.041.917.07 1.817.07 2.718l.001.122v19.02a59.26 59.26 0 0 1-.089 3.235c-.004.077-.013.153-.018.23-.059 1.013-.139 2.025-.249 3.037-.004.037-.01.074-.014.111a60.97 60.97 0 0 1-.425 3.115l-.036.203c-.163.978-.349 1.953-.56 2.925-4.624 21.254-20.451 38.374-40.971 44.821l-.533.159a59.19 59.19 0 0 1-2.192.624l-.787.196c-.66.164-1.323.319-1.992.461l-.917.186c-.636.125-1.275.239-1.917.343l-.982.154c-.634.093-1.273.171-1.914.244l-.996.111c-.674.065-1.352.112-2.032.155l-.889.059c-.972.047-1.948.074-2.931.074a60.51 60.51 0 0 1-2.99-.076c-.342-.017-.681-.05-1.022-.072l-1.932-.147c-.42-.041-.837-.098-1.256-.148l-1.653-.211c-.469-.069-.935-.153-1.402-.233l-1.453-.26c-.512-.101-1.021-.216-1.531-.33l-1.274-.295a59 59 0 0 1-1.638-.436l-1.122-.319a59.57 59.57 0 0 1-1.696-.538l-1.048-.355a59.82 59.82 0 0 1-1.654-.612c-18.759-7.231-33.029-23.556-37.379-43.552zm16.743 90.94l19.512 64.165-29.753-46.083 10.241-18.082zM468.05 483.868v-71.979a7.51 7.51 0 0 0-15.02 0v71.979H302.987v-22.386a7.51 7.51 0 0 0-7.51-7.51c-4.147 0-7.51 3.363-7.51 7.51v22.386h-27.839v-76.345-2.995c0-20.133 13.488-38.165 32.802-43.851l29.728-8.754-11.176 19.733a10.15 10.15 0 0 0 .539 10.874l60.223 93.277c.011.017.025.032.036.049l.121.179c.031.044.065.086.097.13a7.82 7.82 0 0 0 .295.384c.036.043.075.083.112.126.093.107.185.215.284.316.072.072.137.128.199.187.055.053.11.106.167.156a7.55 7.55 0 0 0 .458.375c.036.028.07.057.107.083.029.021.055.044.084.065.019.014.04.025.059.038.206.143.422.275.645.399.047.026.092.054.14.079s.089.041.133.063c.071.036.139.077.212.111.082.038.166.064.248.099a7.54 7.54 0 0 0 .351.14c.057.021.112.048.169.067l.031.009c.105.035.211.057.316.088s.207.061.312.086c.13.031.26.055.391.079a6.83 6.83 0 0 0 .243.04c.075.011.148.027.223.036.29.034.581.054.87.054a7.5 7.5 0 0 0 .878-.054c.075-.009.149-.025.224-.036l.239-.039c.132-.024.263-.048.394-.079.105-.025.208-.057.312-.086s.219-.054.327-.09c.072-.024.13-.052.189-.074a7.12 7.12 0 0 0 .351-.14c.082-.035.167-.061.248-.099.075-.035.144-.076.218-.113.04-.02.083-.037.123-.058.049-.026.096-.055.144-.081.223-.124.439-.255.645-.399.019-.014.04-.025.059-.038.031-.022.058-.046.089-.069s.06-.048.091-.071a7.59 7.59 0 0 0 .469-.383c.057-.051.112-.104.168-.157a7.34 7.34 0 0 0 .482-.501l.114-.128a7.59 7.59 0 0 0 .302-.393c.028-.038.057-.074.084-.113.043-.061.085-.123.126-.185.011-.017.025-.032.036-.049l60.223-93.277c2.267-3.209 2.489-7.434.54-10.871l-11.177-19.735 29.729 8.754c19.313 5.686 32.801 23.718 32.801 43.851v79.336H468.05z"/></svg>