<svg width="500" height="500" viewBox="0 0 500 500" fill="none" xmlns="http://www.w3.org/2000/svg">
<path d="M250 9.16998C117 9.16998 9.16998 117 9.16998 250C9.16998 252.59 9.28998 255.15 9.36998 257.73C13.45 136.84 112.67 40.07 234.55 40.07C359 40.07 459.93 141 459.93 265.45C459.93 387.33 363.16 486.55 242.27 490.63C244.85 490.71 247.41 490.83 250 490.83C383 490.83 490.83 383 490.83 250C490.83 117 383 9.16998 250 9.16998Z" fill="url(#paint0_linear)"/>
<path d="M392.79 334.61H211.48C198.53 334.61 186.9 326.14 182.13 313.25L130.85 174.72C126.08 161.82 114.45 153.36 101.5 153.36H76.28" stroke="url(#paint1_linear)" stroke-width="6" stroke-linecap="round" stroke-linejoin="round"/>
<path d="M212.92 370.7L218.69 387.47C219.212 389.001 220.201 390.33 221.518 391.269C222.834 392.209 224.412 392.713 226.03 392.71H242.23C243.44 392.708 244.632 392.424 245.713 391.88C246.793 391.335 247.731 390.546 248.452 389.574C249.173 388.602 249.657 387.476 249.865 386.284C250.073 385.092 249.999 383.868 249.65 382.71L244.52 365.94C244.035 364.35 243.052 362.958 241.716 361.97C240.38 360.981 238.762 360.448 237.1 360.45H220.26C219.028 360.451 217.814 360.746 216.719 361.31C215.623 361.874 214.678 362.69 213.96 363.692C213.243 364.694 212.775 365.852 212.594 367.07C212.413 368.289 212.525 369.533 212.92 370.7V370.7Z" stroke="url(#paint2_linear)" stroke-width="6" stroke-miterlimit="10"/>
<path d="M347.28 370.7L353 387.47C353.525 388.999 354.515 390.326 355.831 391.266C357.147 392.205 358.723 392.71 360.34 392.71H376.55C377.76 392.708 378.953 392.424 380.033 391.88C381.113 391.335 382.051 390.546 382.772 389.574C383.493 388.602 383.977 387.476 384.185 386.284C384.393 385.092 384.319 383.868 383.97 382.71L378.84 365.94C378.353 364.349 377.369 362.957 376.031 361.969C374.693 360.98 373.073 360.448 371.41 360.45H354.62C353.387 360.449 352.172 360.743 351.076 361.306C349.979 361.869 349.032 362.686 348.315 363.688C347.597 364.69 347.129 365.849 346.949 367.069C346.769 368.288 346.882 369.533 347.28 370.7V370.7Z" stroke="url(#paint3_linear)" stroke-width="6" stroke-miterlimit="10"/>
<path d="M331.77 250.38L325.51 265.25C319.017 280.75 312.533 296.257 306.06 311.77C305.922 312.244 305.614 312.649 305.195 312.91C304.776 313.17 304.276 313.266 303.79 313.18C293.96 313.11 284.13 313.06 274.29 313.09C273.748 313.15 273.202 313.012 272.754 312.702C272.305 312.391 271.984 311.929 271.85 311.4C266.29 297.693 260.7 283.993 255.08 270.3C252.347 263.633 249.613 256.95 246.88 250.25C246.486 249.327 246.282 248.334 246.28 247.33C246.4 216.77 246.513 186.203 246.62 155.63C246.54 155.127 246.635 154.611 246.89 154.17C261.077 190.363 275.21 226.42 289.29 262.34C290.1 262.12 290.1 261.5 290.29 261.04C298.21 240.18 306.123 219.32 314.03 198.46C319.417 184.24 324.81 170.023 330.21 155.81C331.06 153.58 330.77 153.95 332.82 153.96C343.487 153.96 354.153 153.993 364.82 154.06C366.9 154.06 366.82 153.93 366.77 155.96C366.59 207.667 366.413 259.38 366.24 311.1C366.24 311.22 366.24 311.34 366.24 311.46C366.24 313 366.24 313.01 364.67 313.01L333.75 312.9C331.85 312.9 331.84 312.9 331.85 310.9C331.91 291.527 331.973 272.157 332.04 252.79C332.11 251.977 332.019 251.158 331.77 250.38V250.38Z" fill="url(#paint4_linear)"/>
<path d="M187.4 184.08C188.26 181.83 189.01 179.84 189.77 177.87C192.73 170.19 195.693 162.523 198.66 154.87C199.34 153.13 198.97 153.26 201.07 153.27L232.52 153.38C232.88 153.38 233.23 153.38 233.59 153.38C234.27 153.38 234.59 153.64 234.53 154.32C234.53 154.73 234.53 155.15 234.53 155.56L234 310.66C234 313.25 234.24 312.9 231.69 312.9C222.51 312.9 213.33 312.867 204.15 312.8C201.86 312.8 202.03 313.02 202.04 310.72C202.18 269.32 202.32 227.92 202.46 186.52C202.46 183.79 202.79 184.16 200.13 184.13C196 184.1 191.84 184.1 187.4 184.08Z" fill="url(#paint5_linear)"/>
<defs>
<linearGradient id="paint0_linear" x1="57.84" y1="74.66" x2="502.89" y2="415.11" gradientUnits="userSpaceOnUse">
<stop stop-color="white"/>
<stop offset="1" stop-color="white"/>
</linearGradient>
<linearGradient id="paint1_linear" x1="23744.9" y1="44374.7" x2="124873" y2="44374.7" gradientUnits="userSpaceOnUse">
<stop stop-color="white"/>
<stop offset="1" stop-color="#FF471F"/>
</linearGradient>
<linearGradient id="paint2_linear" x1="8137.18" y1="12508.3" x2="9617.65" y2="12508.3" gradientUnits="userSpaceOnUse">
<stop stop-color="white"/>
<stop offset="1" stop-color="white"/>
</linearGradient>
<linearGradient id="paint3_linear" x1="13293.6" y1="12508.3" x2="14772.7" y2="12508.3" gradientUnits="userSpaceOnUse">
<stop stop-color="white"/>
<stop offset="1" stop-color="white"/>
</linearGradient>
<linearGradient id="paint4_linear" x1="9627.78" y1="7878.99" x2="73312.4" y2="44738.2" gradientUnits="userSpaceOnUse">
<stop stop-color="white"/>
<stop offset="1" stop-color="white"/>
</linearGradient>
<linearGradient id="paint5_linear" x1="2102.11" y1="15668.2" x2="33742.9" y2="22814.9" gradientUnits="userSpaceOnUse">
<stop stop-color="white"/>
<stop offset="1" stop-color="white"/>
</linearGradient>
</defs>
</svg>
