<svg id="Layer_1" data-name="Layer 1" xmlns="http://www.w3.org/2000/svg" viewBox="0 0 632 283.44"><defs><style>.cls-1{fill:#ba8500;}</style></defs><path class="cls-1" d="M365.16,21.7A71.84,71.84,0,0,0,342.92,5.79C318.45-5.11,287.84.5,269,19.6,254.14,34,246.58,55.74,249.67,76.28a65.87,65.87,0,0,0,18.43,37.87A67.07,67.07,0,0,0,344,128.29c23-10.41,39-34.66,39-60A66.47,66.47,0,0,0,365.16,21.7Zm12.08,57c-2.65,15.23-11.56,28.92-23.6,38.41-2.41,1.47-4.75,3-7.08,4.57L342,123.89c-14.39,6.87-31.42,7.43-46.45,2.3-4.89-1.82-9.41-4.43-14-6.85q-3.28-2.62-6.47-5.29l-2.45-2a82.85,82.85,0,0,1-11.86-15.94C249.19,74,252.29,45.22,269,26.57a93.41,93.41,0,0,1,10.14-9.46q1.77-1.11,3.51-2.28A62.69,62.69,0,0,1,335,7.92c1.93.84,3.85,1.58,5.79,2.36,1.59.76,3.17,1.46,4.77,2.19a67.74,67.74,0,0,1,24.17,23.16A63.85,63.85,0,0,1,377.24,78.68Z" transform="translate(0 -0.28)"/><path class="cls-1" d="M333.74,43.14c-.87.06-1.89,0-2.83,0h-2l-6.44,11.36c2,4,4.1,7.84,6.42,11.61,2.32-3.8,4.66-7.61,6.85-11.49,4-.23,8.09-.21,12.12-.13L328.34,88c-3.6-7.54-8.35-14.44-12.17-21.88-4.28,7.17-8.68,14.28-12.53,21.69L283.73,54c3.92-.1,7.85-.08,11.77-.07A111.16,111.16,0,0,1,302.79,66L313,49.06c1.14-1.92,2.29-3.83,3.47-5.73-17.57-.17-35.12,0-52.69-.09,5.3,9,10.37,18.11,15.7,27.07,7.76,13.65,15.68,27.22,23.55,40.82,4.25-7.44,8.41-15,13.13-22.11,4.1,7.52,8.7,14.74,12.86,22.22C335.14,100,341.81,89.09,348.16,78c6.71-11.62,13.15-23.41,20.27-34.79C356.87,43.11,345.3,43.21,333.74,43.14Z" transform="translate(0 -0.28)"/><path class="cls-1" d="M541.42,218.88a22.53,22.53,0,0,1,6.75-2.59c0,2.41,0,4.75,0,7.08a44.91,44.91,0,0,1-.3,5.91,9.66,9.66,0,0,1-1.24,3.5,4.45,4.45,0,0,1-5.87,1.57,4.63,4.63,0,0,1-1.65-1.91,5.12,5.12,0,0,1-.54-2.22c0-2.31,0-4.59.12-6.85A5.51,5.51,0,0,1,541.42,218.88Z" transform="translate(0 -0.28)"/><path class="cls-1" d="M483.75,165.72l-.72-2.4c-1.22-4.11-2.18-8.3-3.3-12.45-.71-2.64-1.79-6.89-2.49-9.55H439.49l-2.18,9.41c.34.12,32.38.14,32.38.14,3,11.81,7.09,29.22,7.89,32.22v.08a6.66,6.66,0,0,1,.34,2.11,7,7,0,0,1-7.09,7.09h-6.59a.15.15,0,0,1-.12,0H424.79a6.18,6.18,0,0,0-6.2,6.17l0,0,0,0a6.18,6.18,0,0,0,6.18,6.17H446c.1,0,.18,0,.3,0,11.14,0,20,0,23.09,0h8.27a7.08,7.08,0,0,1,6.87,7.07A7.15,7.15,0,0,1,477.4,219H464.32c-3,0-5,0-8.76,0H452.4a5.92,5.92,0,0,0-1.47.2,5.52,5.52,0,0,0-3.56,2.42l-.12.18a1.65,1.65,0,0,0-.14.26,5.61,5.61,0,0,0-.72,1.79l0,0c0,.08,0,.16,0,.24a5.05,5.05,0,0,0-.11,1v.12a4.59,4.59,0,0,0,.13,1.1.15.15,0,0,0,0,.1,5.86,5.86,0,0,0,2.4,3.71,6.15,6.15,0,0,0,3.63,1.2h31.35a7.09,7.09,0,0,1,7.1,7.09,7.1,7.1,0,0,1-7.1,7.12H458.17c-2.21,0-4.69,0-7.64,0-.56,0-1.14.06-1.72.06h-11a6.16,6.16,0,0,0-6.15,6.15c0,.22,0,.48,0,.7a6.17,6.17,0,0,0,6.13,5.47H448c23.12,0,107.71,0,144.82,0h11.68c5.55,0,3.87,0,6.19,0L632,165.72Zm33.66,31.94c-.62-2.59-2.44-3.59-5-2.87a2.82,2.82,0,0,0-2.2,2.29,17.88,17.88,0,0,0-.7,4.35c-.06,8.93-.06,17.93,0,26.86a14.64,14.64,0,0,0,.66,4.09,3.37,3.37,0,0,0,3.69,2.67,3.28,3.28,0,0,0,3.5-2.71,21,21,0,0,0,.58-3.93c.1-1.4,0-2.84,0-4.34h6.94a.06.06,0,0,0,.06.06,33.85,33.85,0,0,1-.86,10.14,9.69,9.69,0,0,1-8.6,7.07,18.5,18.5,0,0,1-5.13-.36c-3.85-.82-6.11-3.45-7-7.16a28.91,28.91,0,0,1-1-7.15c-.14-8.15-.1-16.31-.06-24.44a20.26,20.26,0,0,1,1.2-7c1.8-4.9,5.51-7.39,10.78-7.29s8.53,2.75,9.9,7.82a39,39,0,0,1,.82,10.55s0,.08-.1.17h-6.9v-1.11A31.32,31.32,0,0,0,517.41,197.66Zm37.91,42.92c-1.66,0-3.2,0-4.81,0-.16,0-.38-.28-.44-.46-.28-.87-.52-1.75-.78-2.67,0-.18-.16-.38-.24-.62a2.34,2.34,0,0,0-.44.36c-2,3.07-5,4.09-8.44,4-4.68,0-7.39-2.31-8.27-7.08a34.32,34.32,0,0,1-.06-12.54,10.37,10.37,0,0,1,5.75-7.73,45.15,45.15,0,0,1,9.44-3.49,1.53,1.53,0,0,0,1.16-1.56c-.14-3.13-.16-6.25-.26-9.38a9.57,9.57,0,0,0-.22-1.32c-.76-3.09-3.43-4.39-6.37-3.09a3.44,3.44,0,0,0-2.09,2.49,33.33,33.33,0,0,0-.68,4.69c-.1,1.42,0,2.82,0,4.35H531.4c-.12-4.43-.22-8.8,1.88-12.83a10.8,10.8,0,0,1,7.48-5.45,14.77,14.77,0,0,1,7,.28c3.93,1.24,6,4.23,6.79,8a33.81,33.81,0,0,1,.7,6.93c0,12.08,0,24.12,0,36.16Zm25.47-45.06c-.22,0-.46,0-.7,0h-2.25a6.47,6.47,0,0,0-6.43,5.67,23.82,23.82,0,0,0-.2,3.18v36.11H564v-51.7c1.54,0,3.06,0,4.53,0,.22,0,.44.28.56.5.38.83.8,1.73,1.16,2.61.24.5.5.52.84.1,2.66-2.85,6-3.39,9.7-3.21Zm22.7,0h-7.56v.88q-.09,16.5-.1,33a11.67,11.67,0,0,0,.27,2.54,2.23,2.23,0,0,0,2,1.76c1.58.08,3.18.08,4.79.12l.56,0v6.7h-1.22c-2.35-.06-4.73,0-7-.14-3.86-.36-5.81-2.33-6.31-6.17a44.39,44.39,0,0,1-.28-4.89c0-10.9,0-21.86,0-32.76v-1h-5.19v-6.78h5.17c0-.38,0-.66,0-.94,0-3.08,0-6.17,0-9.28a1.36,1.36,0,0,1,.36-.88c2.23-1.08,4.41-2.12,6.63-3.18a1,1,0,0,1,.28,0V188.8h7.56Z" transform="translate(0 -0.28)"/><path class="cls-1" d="M437.1,231.33a5.6,5.6,0,0,0,4.82-3.11,6,6,0,0,0-.76-7.17h0a6.75,6.75,0,0,0-.67-.64l-.15-.12a6.07,6.07,0,0,0-3.75-1.3h-5.32a6.11,6.11,0,0,0-3.52,1.11A5.76,5.76,0,0,0,425.1,225v.15c0,.16,0,.31,0,.47s0,.52.08.76c0,0,0,0,0,.05a5.87,5.87,0,0,0,5.66,4.92A49.48,49.48,0,0,0,437.1,231.33Z" transform="translate(0 -0.28)"/><path class="cls-1" d="M52.53,169.27l-6.41,68-10.34-68H27.27l-10.08,68-7.55-68H0L11.7,258H21.78l10-65.48L41.29,258H51.61l10.48-88.72Z" transform="translate(0 -0.28)"/><path class="cls-1" d="M97.18,169.27v37.21H83V169.27H72.53V258H83V215H97.18v43h10.43V169.27Z" transform="translate(0 -0.28)"/><path class="cls-1" d="M154.24,178c-2.23-6.51-7.29-9.77-15.23-9.77-5.43,0-9.6,1.48-12.44,4.44q-5.44,5.65-5.45,20.76v39.11q0,13.83,4,20.16c2.64,4.25,7.19,6.35,13.66,6.35s11-2.1,13.58-6.31,3.87-11,3.87-20.2V193.41Q156.2,183.8,154.24,178Zm-8.48,54.64c0,6.69-.46,11.26-1.4,13.75s-2.84,3.7-5.69,3.7-4.75-1.22-5.71-3.66-1.4-7-1.4-13.79V192.75c0-5.53.54-9.52,1.62-11.94a5.75,5.75,0,0,1,5.73-3.63c2.77,0,4.59,1.18,5.51,3.55s1.34,6.39,1.34,12.08Z" transform="translate(0 -0.28)"/><path class="cls-1" d="M180.14,249.35V169.27H169.71V258h26.82v-8.64Z" transform="translate(0 -0.28)"/><path class="cls-1" d="M216,249.31V217h15.23v-8.67H216V177.94h16.09v-8.67H205.61V258h26.71v-8.68Z" transform="translate(0 -0.28)"/><path class="cls-1" d="M266.34,209.9l-6-6.41q-.24-.3-2.46-2.58a26.64,26.64,0,0,1-3.73-4.83c-1-1.67-1.52-4.33-1.52-8s.56-6.37,1.66-8.21a5.88,5.88,0,0,1,5.45-2.79,5.35,5.35,0,0,1,3.26,1,7.61,7.61,0,0,1,2.13,3.89c.56,1.94.86,5.75.86,11.38v6h10v-5.23a75.75,75.75,0,0,0-1-13.46q-2.35-12.39-15.23-12.4-10,0-13.59,5.67t-3.54,15.3a28.34,28.34,0,0,0,.9,7.62q1.86,6.7,9.62,14.66l5.79,5.79q8.11,8.12,8.13,17.34c0,3.06-.08,5.83-.24,8.27a9.41,9.41,0,0,1-1.68,5.47c-1,1.18-2.75,1.78-5.29,1.78a5.21,5.21,0,0,1-5.25-3.8c-.94-2.53-1.4-7.06-1.4-13.53v-9H243v9.11q0,9.62,1.86,15.57Q248.12,259,260.13,259c6.65,0,11.18-2,13.54-6.07s3.55-9.9,3.55-17.55Q277.22,221.28,266.34,209.9Z" transform="translate(0 -0.28)"/><path class="cls-1" d="M310.5,169.27H297.94L284.47,258h9.94l2.33-17H312.8l2.53,17h9.84Zm-12.6,63.31,6.45-46.88h.14l7,46.88Z" transform="translate(0 -0.28)"/><path class="cls-1" d="M346.18,249.35V169.27H335.75V258h26.8v-8.64Z" transform="translate(0 -0.28)"/><path class="cls-1" d="M385.44,249.31V217h15.22v-8.67H385.44V177.94H401.5v-8.67H375V258h26.72v-8.68Z" transform="translate(0 -0.28)"/><path class="cls-1" d="M582.05,260.85c6.68,0,11.37,4.66,11.41,11.34a11.36,11.36,0,0,1-11.39,11.53,11.7,11.7,0,0,1-11.42-11.13A11.27,11.27,0,0,1,582.05,260.85Z" transform="translate(0 -0.28)"/><path class="cls-1" d="M512.46,272a11,11,0,0,1,11.7-11.1,11.27,11.27,0,0,1,11.15,11.74,11.67,11.67,0,0,1-11.93,11.11A11.39,11.39,0,0,1,512.46,272Z" transform="translate(0 -0.28)"/></svg>