<?xml version="1.0"?>
<svg xmlns="http://www.w3.org/2000/svg" xmlns:xlink="http://www.w3.org/1999/xlink" xmlns:svgjs="http://svgjs.com/svgjs" version="1.1" width="512" height="512" x="0" y="0" viewBox="0 0 512.002 512.002" style="enable-background:new 0 0 512 512" xml:space="preserve" class=""><g><g xmlns="http://www.w3.org/2000/svg"><path d="m490.829 371.772c-20.209-9.239-43.871-18.164-70.335-26.528-11.355-4.801-24.489-4.538-37.322 2.62-32.302 1.828-60.918-4.879-85.072-19.981-3.511-2.195-8.14-1.129-10.335 2.383-2.196 3.512-1.129 8.14 2.384 10.335 18.638 11.653 39.556 18.823 62.475 21.445-106.239 38.277-135.573-89.958-182.948-189.676 61.431 92.299 61.326 112.889 91.48 144.481 2.86 2.996 7.606 3.105 10.604.247 2.996-2.86 3.106-7.607.246-10.604-10.099-10.581-19.183-23.312-27-37.841-49.381-91.774-99.808-161.159-161.278-234.166-9.616-11.417-27.156-11.684-37.041-.481-17.036 19.311-45.753 61.674-46.685 128.433-.067 4.864 1.955 9.433 5.434 12.651l48.703 293.58c1.687 10.167 10.391 17.545 20.695 17.545 12.15 0 21.78-10.327 20.927-22.451l-6.577-93.482c-.291-4.132-3.882-7.246-8.008-6.955-4.132.291-7.246 3.876-6.955 8.008l6.577 93.483c.243 3.465-2.494 6.397-5.964 6.397-2.937 0-5.417-2.103-5.898-5l-46.529-280.48c17.562 11.28 46.069 32.039 75.314 63.583-17.583 25.296-26.729 55.836-25.853 86.704.115 4.068 3.449 7.287 7.493 7.287.072 0 .145-.001.217-.003 4.141-.118 7.401-3.569 7.284-7.71-.751-26.464 6.723-52.657 21.165-74.728 31.309 36.461 62.073 85.419 79.771 148.463 10.192 36.309 39.403 63.733 76.231 71.572 34.98 7.444 71.591 7.365 108.731-1.92 49.181-12.295 91.334-29.305 118.036-41.409 28.305-12.831 28.234-52.911.033-65.802zm-121.707 92.66c-33.694 8.423-68.003 9.029-101.97 1.8-31.358-6.674-56.231-30.03-64.913-60.955-17.651-62.878-49.836-118.633-89.218-161.595-26.6-29.555-62.148-59.877-97.023-79.321-.625-.349-1.008-1.006-.998-1.714.866-61.927 27.271-100.962 42.934-118.718 3.837-4.347 10.622-4.172 14.318.22 98.272 116.714 113.477 245.015 174.842 308.74 42.351 43.878 91.517 37.274 144.428 7.496 7.145-4.023 15.88-4.48 23.367-1.224 1.728.748 35.76 10.735 69.702 26.252 16.565 7.573 16.624 30.969.011 38.499-26.137 11.849-67.388 28.497-115.48 40.52z" fill="#232F3E" data-original="#000000" style="" class=""/></g></g></svg>
